<svg width="319" height="108" viewBox="0 0 319 108" fill="none" xmlns="http://www.w3.org/2000/svg">
<rect width="319" height="107.558" rx="15" fill="#32363C"/>
<path d="M69.7076 29.4967V29.4327C69.6517 20.3844 56.9273 13 41.3538 13C25.7802 13 13 20.3844 13 29.4967C13 38.6101 25.7224 45.9797 41.3538 45.9797C48.5265 45.9825 55.4249 44.4011 60.6139 41.5646C61.1249 41.2971 61.4296 40.9244 61.4608 40.5282C61.492 40.1321 61.2473 39.7451 60.7803 39.4524C60.3134 39.1597 59.6626 38.9851 58.9711 38.9673C58.2795 38.9494 57.6039 39.0896 57.0928 39.357L57.037 39.389C54.7981 40.6082 52.1522 41.5556 49.2582 42.1744C46.3641 42.7932 43.2816 43.0707 40.1957 42.9902C37.1097 42.9097 34.084 42.4728 31.3002 41.7058C28.5164 40.9388 26.0319 39.8575 23.9958 38.5268L36.1081 27.4011V32.5494C36.1081 35.0093 37.7829 35.8099 39.1905 36.0337C40.5981 36.2576 42.7096 36.0954 44.9965 34.018L51.6418 27.8373C51.8192 27.6569 52.0246 27.4856 52.2519 27.3246V30.4594C52.2519 32.7606 53.8708 34.6153 56.6602 35.5095C57.9478 35.9111 59.4012 36.1054 60.8662 36.0718C62.3311 36.0383 63.7528 35.778 64.9803 35.3188C68.2022 34.1208 69.9329 32.0229 69.7076 29.4967ZM62.3385 32.7344C61.891 32.9109 61.3694 33.0158 60.8274 33.0381C60.2855 33.0603 59.743 32.9993 59.2561 32.8611C58.1396 32.4786 57.4676 31.6163 57.4676 30.4332V26.8095C57.4676 25.085 56.2953 23.8368 54.2875 23.5193C50.8801 22.93 48.3161 25.3408 47.3651 26.2362L41.3538 31.7659V24.9571C41.298 23.3914 40.4027 22.464 38.728 22.1751C37.6114 21.9844 35.9366 22.0815 34.3197 23.4885L20.8675 35.8281C19.0779 33.8749 18.1401 31.7026 18.134 29.4967C18.134 22.0472 28.5696 16.0047 41.3538 16.0047C54.138 16.0047 64.5735 22.0472 64.5735 29.4967V29.5618C64.7071 30.9985 63.9016 32.1519 62.3405 32.7252L62.3385 32.7344Z" fill="white"/>
<path d="M0 66.9294H319" stroke="white" stroke-opacity="0.2" stroke-width="0.3"/>
<path d="M34.3524 82.4654V89.2154H33.1878V82.4654H34.3524ZM36.8574 88.3365L37.9649 84.4605H39.1778L37.5474 89.2154H36.8091L36.8574 88.3365ZM36.0489 84.4605L37.1695 88.3453L37.209 89.2154H36.4663L34.8316 84.4605H36.0489ZM40.8391 82.4654V89.2154H39.6745V82.4654H40.8391ZM46.7545 82.7994V89.2154H45.5899V84.1573L44.0474 84.6671V83.7266L46.6226 82.7994H46.7545Z" fill="white"/>
<path d="M60.599 74.0308L60.599 98.4" stroke="white" stroke-opacity="0.2" stroke-width="0.3"/>
<circle cx="80.099" cy="86.2154" r="7.5" fill="#F9E160"/>
<g filter="url(#filter0_i_2_189)">
<circle cx="80.099" cy="86.2154" r="6.22881" fill="#FE881C" fill-opacity="0.72"/>
</g>
<g filter="url(#filter1_d_2_189)">
<path d="M79.8113 90.4103V89.5667C78.9043 89.498 78.1951 89.1731 77.6837 88.592L78.2773 87.7484C78.6973 88.2108 79.2087 88.4888 79.8113 88.5826V86.7736C79.5252 86.6986 79.2878 86.6268 79.0991 86.5581C78.9104 86.4831 78.7125 86.38 78.5055 86.2487C78.2986 86.1113 78.1403 85.9363 78.0307 85.7239C77.9272 85.5052 77.8755 85.249 77.8755 84.9553C77.8755 84.4742 78.052 84.0649 78.4051 83.7275C78.7582 83.39 79.2269 83.1963 79.8113 83.1464V82.2747H80.5418V83.1557C81.2784 83.237 81.8902 83.5181 82.3773 83.9993L81.7655 84.8147C81.4306 84.4773 81.0228 84.2586 80.5418 84.1586V85.7707C80.7671 85.8332 80.9588 85.8926 81.1171 85.9488C81.2754 86.0051 81.4489 86.0863 81.6376 86.1925C81.8324 86.2925 81.9876 86.405 82.1033 86.5299C82.219 86.6487 82.3164 86.8049 82.3955 86.9986C82.4747 87.1923 82.5142 87.411 82.5142 87.6547C82.5142 88.167 82.3468 88.6013 82.012 88.9575C81.6833 89.3074 81.1932 89.5105 80.5418 89.5667V90.4103H79.8113ZM81.2084 88.2826C81.3545 88.1264 81.4276 87.9515 81.4276 87.7578C81.4276 87.5641 81.3515 87.4079 81.1993 87.2891C81.0471 87.1642 80.828 87.0579 80.5418 86.9705V88.592C80.8401 88.542 81.0623 88.4389 81.2084 88.2826ZM78.9712 84.8803C78.9712 85.1802 79.2513 85.4114 79.8113 85.5739V84.1118C79.5496 84.1367 79.3426 84.2211 79.1904 84.3648C79.0443 84.5023 78.9712 84.6741 78.9712 84.8803Z" fill="#FFEA7C"/>
</g>
<g style="mix-blend-mode:overlay" filter="url(#filter2_f_2_189)">
<circle cx="80.2261" cy="84.0543" r="4.0678" fill="white"/>
</g>
<path d="M94.8153 82.3736V90.2154H93.3919V84.0332L91.5067 84.6563V83.5069L94.6541 82.3736H94.8153ZM98.296 89.1143H98.398C98.8599 89.1143 99.2502 89.0552 99.5689 88.937C99.8912 88.8189 100.151 88.6524 100.348 88.4375C100.548 88.2191 100.693 87.9595 100.783 87.6587C100.876 87.3544 100.922 87.0178 100.922 86.649V85.231C100.922 84.9302 100.892 84.667 100.831 84.4414C100.77 84.2123 100.684 84.0207 100.573 83.8667C100.466 83.7128 100.339 83.5982 100.192 83.523C100.045 83.4442 99.8876 83.4048 99.7193 83.4048C99.5331 83.4048 99.3684 83.4478 99.2252 83.5337C99.0819 83.6197 98.9602 83.7378 98.8599 83.8882C98.7632 84.035 98.6881 84.2051 98.6343 84.3985C98.5842 84.5918 98.5591 84.7959 98.5591 85.0108C98.5591 85.2185 98.5824 85.4172 98.629 85.607C98.6791 85.7967 98.7525 85.965 98.8492 86.1118C98.9494 86.2587 99.0748 86.375 99.2252 86.461C99.3756 86.5433 99.551 86.5845 99.7515 86.5845C99.9413 86.5845 100.113 86.5487 100.267 86.4771C100.425 86.4019 100.561 86.3034 100.675 86.1817C100.79 86.0563 100.878 85.9185 100.939 85.7681C101.003 85.6141 101.039 85.4584 101.046 85.3008L101.545 85.5157C101.545 85.777 101.49 86.0349 101.379 86.2891C101.272 86.5433 101.119 86.7743 100.922 86.982C100.729 87.1861 100.503 87.3508 100.246 87.4761C99.9879 87.5978 99.7103 87.6587 99.4131 87.6587C99.0443 87.6587 98.7185 87.5907 98.4356 87.4546C98.1527 87.3186 97.9146 87.1306 97.7213 86.8907C97.5315 86.6472 97.3882 86.3679 97.2916 86.0528C97.1949 85.7341 97.1465 85.3939 97.1465 85.0323C97.1465 84.6563 97.2056 84.3036 97.3238 83.9742C97.442 83.6411 97.612 83.3493 97.834 83.0987C98.0596 82.8444 98.3318 82.6457 98.6505 82.5025C98.9691 82.3557 99.3272 82.2823 99.7247 82.2823C100.136 82.2823 100.503 82.3628 100.826 82.524C101.148 82.6851 101.422 82.9089 101.648 83.1953C101.873 83.4782 102.045 83.813 102.163 84.1997C102.285 84.5865 102.346 85.009 102.346 85.4673V85.9668C102.346 86.4502 102.297 86.9086 102.201 87.3418C102.104 87.7751 101.955 88.1708 101.755 88.5288C101.554 88.8869 101.298 89.1966 100.987 89.458C100.679 89.7194 100.31 89.9217 99.8804 90.065C99.4543 90.2046 98.9673 90.2744 98.4195 90.2744H98.296V89.1143ZM108.587 89.0982V90.2154H103.291V89.2593L105.832 86.5147C106.097 86.2139 106.306 85.9525 106.46 85.7305C106.614 85.5085 106.723 85.308 106.788 85.1289C106.856 84.9463 106.89 84.7727 106.89 84.6079C106.89 84.368 106.847 84.1586 106.761 83.9795C106.675 83.7969 106.55 83.6555 106.385 83.5552C106.224 83.4549 106.025 83.4048 105.789 83.4048C105.527 83.4048 105.304 83.4657 105.117 83.5874C104.935 83.7056 104.795 83.8703 104.699 84.0816C104.605 84.2928 104.559 84.5345 104.559 84.8067H103.136C103.136 84.3448 103.243 83.924 103.458 83.5445C103.673 83.1613 103.981 82.8552 104.382 82.626C104.783 82.3968 105.259 82.2823 105.81 82.2823C106.347 82.2823 106.802 82.3718 107.175 82.5508C107.547 82.7263 107.83 82.9769 108.023 83.3028C108.217 83.6286 108.313 84.0171 108.313 84.4683C108.313 84.7189 108.272 84.966 108.19 85.2095C108.107 85.453 107.991 85.6947 107.841 85.9346C107.694 86.1709 107.518 86.4108 107.314 86.6543C107.11 86.8978 106.883 87.1467 106.632 87.4009L105.107 89.0982H108.587Z" fill="white"/>
<path d="M94.1069 13.6016V20H93.272V13.6016H94.1069ZM96.1636 13.6016V14.2959H91.2197V13.6016H96.1636ZM96.155 17.6753V17.5742C96.155 17.2314 96.2048 16.9136 96.3044 16.6206C96.404 16.3247 96.5475 16.0684 96.735 15.8516C96.9225 15.6318 97.1496 15.4619 97.4162 15.3418C97.6828 15.2188 97.9816 15.1572 98.3127 15.1572C98.6467 15.1572 98.947 15.2188 99.2136 15.3418C99.4831 15.4619 99.7116 15.6318 99.8991 15.8516C100.09 16.0684 100.235 16.3247 100.334 16.6206C100.434 16.9136 100.484 17.2314 100.484 17.5742V17.6753C100.484 18.0181 100.434 18.3359 100.334 18.6289C100.235 18.9219 100.09 19.1782 99.8991 19.3979C99.7116 19.6147 99.4846 19.7847 99.2179 19.9077C98.9543 20.0278 98.6554 20.0879 98.3215 20.0879C97.9875 20.0879 97.6872 20.0278 97.4206 19.9077C97.154 19.7847 96.9255 19.6147 96.735 19.3979C96.5475 19.1782 96.404 18.9219 96.3044 18.6289C96.2048 18.3359 96.155 18.0181 96.155 17.6753ZM96.9679 17.5742V17.6753C96.9679 17.9126 96.9958 18.1367 97.0514 18.3477C97.1071 18.5557 97.1906 18.7402 97.3019 18.9014C97.4162 19.0625 97.5583 19.1899 97.7282 19.2837C97.8981 19.3745 98.0959 19.4199 98.3215 19.4199C98.5441 19.4199 98.7389 19.3745 98.9059 19.2837C99.0759 19.1899 99.2165 19.0625 99.3278 18.9014C99.4391 18.7402 99.5226 18.5557 99.5783 18.3477C99.6369 18.1367 99.6662 17.9126 99.6662 17.6753V17.5742C99.6662 17.3398 99.6369 17.1187 99.5783 16.9106C99.5226 16.6997 99.4377 16.5137 99.3234 16.3525C99.2121 16.1885 99.0715 16.0596 98.9015 15.9658C98.7346 15.8721 98.5383 15.8252 98.3127 15.8252C98.09 15.8252 97.8937 15.8721 97.7238 15.9658C97.5568 16.0596 97.4162 16.1885 97.3019 16.3525C97.1906 16.5137 97.1071 16.6997 97.0514 16.9106C96.9958 17.1187 96.9679 17.3398 96.9679 17.5742ZM102.136 16.1592V21.8281H101.319V15.2451H102.066L102.136 16.1592ZM105.34 17.583V17.6753C105.34 18.021 105.299 18.3418 105.217 18.6377C105.135 18.9307 105.015 19.1855 104.856 19.4023C104.701 19.6191 104.509 19.7876 104.281 19.9077C104.052 20.0278 103.79 20.0879 103.494 20.0879C103.192 20.0879 102.926 20.0381 102.694 19.9385C102.463 19.8389 102.266 19.6938 102.105 19.5034C101.944 19.313 101.815 19.0845 101.719 18.8179C101.625 18.5513 101.56 18.251 101.525 17.917V17.4248C101.56 17.0732 101.626 16.7583 101.723 16.48C101.82 16.2017 101.947 15.9644 102.105 15.7681C102.266 15.5688 102.461 15.418 102.69 15.3154C102.918 15.21 103.182 15.1572 103.481 15.1572C103.78 15.1572 104.045 15.2158 104.276 15.333C104.508 15.4473 104.703 15.6113 104.861 15.8252C105.019 16.0391 105.138 16.2954 105.217 16.5942C105.299 16.8901 105.34 17.2197 105.34 17.583ZM104.522 17.6753V17.583C104.522 17.3457 104.497 17.123 104.448 16.915C104.398 16.7041 104.32 16.5195 104.215 16.3613C104.112 16.2002 103.98 16.0742 103.819 15.9834C103.658 15.8896 103.466 15.8428 103.244 15.8428C103.038 15.8428 102.86 15.8779 102.707 15.9482C102.558 16.0186 102.431 16.1138 102.325 16.2339C102.22 16.3511 102.133 16.4858 102.066 16.6382C102.001 16.7876 101.953 16.9429 101.921 17.104V18.2422C101.979 18.4473 102.061 18.6406 102.167 18.8223C102.272 19.001 102.413 19.146 102.589 19.2573C102.765 19.3657 102.986 19.4199 103.252 19.4199C103.472 19.4199 103.661 19.3745 103.819 19.2837C103.98 19.1899 104.112 19.0625 104.215 18.9014C104.32 18.7402 104.398 18.5557 104.448 18.3477C104.497 18.1367 104.522 17.9126 104.522 17.6753ZM110.833 13.5664V20H110.02V14.5815L108.381 15.1792V14.4453L110.706 13.5664H110.833ZM117.06 16.291V17.2666C117.06 17.791 117.014 18.2334 116.92 18.5938C116.826 18.9541 116.691 19.2441 116.516 19.4639C116.34 19.6836 116.127 19.8433 115.878 19.9429C115.632 20.0396 115.354 20.0879 115.043 20.0879C114.797 20.0879 114.57 20.0571 114.362 19.9956C114.154 19.9341 113.967 19.8359 113.8 19.7012C113.636 19.5635 113.495 19.3848 113.378 19.165C113.261 18.9453 113.171 18.6787 113.11 18.3652C113.048 18.0518 113.017 17.6855 113.017 17.2666V16.291C113.017 15.7666 113.064 15.3271 113.158 14.9727C113.255 14.6182 113.391 14.334 113.567 14.1201C113.743 13.9033 113.954 13.748 114.2 13.6543C114.449 13.5605 114.727 13.5137 115.035 13.5137C115.284 13.5137 115.512 13.5444 115.72 13.606C115.931 13.6646 116.119 13.7598 116.283 13.8916C116.447 14.0205 116.586 14.1934 116.7 14.4102C116.817 14.624 116.907 14.8862 116.968 15.1968C117.03 15.5073 117.06 15.8721 117.06 16.291ZM116.243 17.3984V16.1548C116.243 15.8677 116.225 15.6157 116.19 15.3989C116.158 15.1792 116.11 14.9917 116.045 14.8364C115.981 14.6812 115.899 14.5552 115.799 14.4585C115.703 14.3618 115.59 14.2915 115.461 14.2476C115.335 14.2007 115.193 14.1772 115.035 14.1772C114.841 14.1772 114.67 14.2139 114.52 14.2871C114.371 14.3574 114.245 14.4702 114.142 14.6255C114.043 14.7808 113.967 14.9844 113.914 15.2363C113.861 15.4883 113.835 15.7944 113.835 16.1548V17.3984C113.835 17.6855 113.851 17.939 113.883 18.1587C113.918 18.3784 113.97 18.5688 114.037 18.73C114.104 18.8882 114.186 19.0186 114.283 19.1211C114.38 19.2236 114.491 19.2998 114.617 19.3496C114.746 19.3965 114.888 19.4199 115.043 19.4199C115.243 19.4199 115.417 19.3818 115.566 19.3057C115.716 19.2295 115.84 19.1108 115.94 18.9497C116.042 18.7856 116.119 18.5762 116.168 18.3213C116.218 18.0635 116.243 17.7559 116.243 17.3984ZM121.969 19.4199C122.163 19.4199 122.342 19.3804 122.506 19.3013C122.67 19.2222 122.804 19.1138 122.91 18.9761C123.015 18.8354 123.075 18.6758 123.09 18.4971H123.864C123.849 18.7783 123.754 19.0405 123.578 19.2837C123.405 19.5239 123.178 19.7188 122.897 19.8682C122.615 20.0146 122.306 20.0879 121.969 20.0879C121.612 20.0879 121.3 20.0249 121.033 19.8989C120.77 19.7729 120.55 19.6001 120.374 19.3804C120.201 19.1606 120.071 18.9087 119.983 18.6245C119.898 18.3374 119.856 18.0342 119.856 17.7148V17.5303C119.856 17.2109 119.898 16.9092 119.983 16.625C120.071 16.3379 120.201 16.0845 120.374 15.8647C120.55 15.645 120.77 15.4722 121.033 15.3462C121.3 15.2202 121.612 15.1572 121.969 15.1572C122.342 15.1572 122.667 15.2334 122.945 15.3857C123.223 15.5352 123.442 15.7402 123.6 16.001C123.761 16.2588 123.849 16.5518 123.864 16.8799H123.09C123.075 16.6836 123.02 16.5063 122.923 16.3481C122.829 16.1899 122.7 16.064 122.536 15.9702C122.375 15.8735 122.186 15.8252 121.969 15.8252C121.72 15.8252 121.511 15.875 121.341 15.9746C121.174 16.0713 121.041 16.2031 120.941 16.3701C120.844 16.5342 120.774 16.7173 120.73 16.9194C120.689 17.1187 120.669 17.3223 120.669 17.5303V17.7148C120.669 17.9229 120.689 18.1279 120.73 18.3301C120.771 18.5322 120.84 18.7153 120.937 18.8794C121.036 19.0435 121.17 19.1753 121.337 19.2749C121.507 19.3716 121.718 19.4199 121.969 19.4199ZM125.406 16.1899V20H124.589V15.2451H125.362L125.406 16.1899ZM125.239 17.4424L124.861 17.4292C124.864 17.104 124.907 16.8037 124.989 16.5283C125.071 16.25 125.192 16.0083 125.353 15.8032C125.515 15.5981 125.715 15.4399 125.956 15.3286C126.196 15.2144 126.474 15.1572 126.79 15.1572C127.013 15.1572 127.218 15.1895 127.406 15.2539C127.593 15.3154 127.756 15.4136 127.893 15.5483C128.031 15.6831 128.138 15.856 128.214 16.0669C128.29 16.2778 128.329 16.5327 128.329 16.8315V20H127.516V16.8711C127.516 16.6221 127.473 16.4229 127.388 16.2734C127.306 16.124 127.189 16.0156 127.037 15.9482C126.884 15.8779 126.706 15.8428 126.5 15.8428C126.26 15.8428 126.06 15.8853 125.898 15.9702C125.737 16.0552 125.608 16.1724 125.512 16.3218C125.415 16.4712 125.345 16.6426 125.301 16.8359C125.26 17.0264 125.239 17.2285 125.239 17.4424ZM128.32 16.9941L127.775 17.1611C127.778 16.9004 127.82 16.6499 127.902 16.4097C127.987 16.1694 128.109 15.9556 128.267 15.7681C128.428 15.5806 128.626 15.4326 128.86 15.3242C129.095 15.2129 129.363 15.1572 129.664 15.1572C129.919 15.1572 130.145 15.1909 130.341 15.2583C130.54 15.3257 130.707 15.4297 130.842 15.5703C130.98 15.708 131.084 15.8853 131.154 16.1021C131.225 16.3188 131.26 16.5767 131.26 16.8755V20H130.442V16.8667C130.442 16.6001 130.4 16.3936 130.315 16.2471C130.233 16.0977 130.116 15.9937 129.963 15.9351C129.814 15.8735 129.635 15.8428 129.427 15.8428C129.248 15.8428 129.09 15.8735 128.953 15.9351C128.815 15.9966 128.699 16.0815 128.605 16.1899C128.512 16.2954 128.44 16.417 128.39 16.5547C128.343 16.6924 128.32 16.8389 128.32 16.9941ZM134.213 19.4199C134.406 19.4199 134.585 19.3804 134.749 19.3013C134.913 19.2222 135.048 19.1138 135.153 18.9761C135.259 18.8354 135.319 18.6758 135.334 18.4971H136.107C136.092 18.7783 135.997 19.0405 135.821 19.2837C135.649 19.5239 135.422 19.7188 135.14 19.8682C134.859 20.0146 134.55 20.0879 134.213 20.0879C133.856 20.0879 133.544 20.0249 133.277 19.8989C133.013 19.7729 132.794 19.6001 132.618 19.3804C132.445 19.1606 132.315 18.9087 132.227 18.6245C132.142 18.3374 132.099 18.0342 132.099 17.7148V17.5303C132.099 17.2109 132.142 16.9092 132.227 16.625C132.315 16.3379 132.445 16.0845 132.618 15.8647C132.794 15.645 133.013 15.4722 133.277 15.3462C133.544 15.2202 133.856 15.1572 134.213 15.1572C134.585 15.1572 134.91 15.2334 135.189 15.3857C135.467 15.5352 135.685 15.7402 135.843 16.001C136.005 16.2588 136.092 16.5518 136.107 16.8799H135.334C135.319 16.6836 135.263 16.5063 135.167 16.3481C135.073 16.1899 134.944 16.064 134.78 15.9702C134.619 15.8735 134.43 15.8252 134.213 15.8252C133.964 15.8252 133.755 15.875 133.585 15.9746C133.418 16.0713 133.284 16.2031 133.185 16.3701C133.088 16.5342 133.018 16.7173 132.974 16.9194C132.933 17.1187 132.912 17.3223 132.912 17.5303V17.7148C132.912 17.9229 132.933 18.1279 132.974 18.3301C133.015 18.5322 133.084 18.7153 133.18 18.8794C133.28 19.0435 133.413 19.1753 133.58 19.2749C133.75 19.3716 133.961 19.4199 134.213 19.4199ZM139.707 16.1592V21.8281H138.889V15.2451H139.636L139.707 16.1592ZM142.91 17.583V17.6753C142.91 18.021 142.869 18.3418 142.787 18.6377C142.705 18.9307 142.585 19.1855 142.427 19.4023C142.271 19.6191 142.08 19.7876 141.851 19.9077C141.623 20.0278 141.36 20.0879 141.064 20.0879C140.763 20.0879 140.496 20.0381 140.265 19.9385C140.033 19.8389 139.837 19.6938 139.676 19.5034C139.515 19.313 139.386 19.0845 139.289 18.8179C139.195 18.5513 139.131 18.251 139.096 17.917V17.4248C139.131 17.0732 139.197 16.7583 139.293 16.48C139.39 16.2017 139.518 15.9644 139.676 15.7681C139.837 15.5688 140.032 15.418 140.26 15.3154C140.489 15.21 140.752 15.1572 141.051 15.1572C141.35 15.1572 141.615 15.2158 141.847 15.333C142.078 15.4473 142.273 15.6113 142.431 15.8252C142.589 16.0391 142.708 16.2954 142.787 16.5942C142.869 16.8901 142.91 17.2197 142.91 17.583ZM142.093 17.6753V17.583C142.093 17.3457 142.068 17.123 142.018 16.915C141.968 16.7041 141.891 16.5195 141.785 16.3613C141.683 16.2002 141.551 16.0742 141.39 15.9834C141.228 15.8896 141.037 15.8428 140.814 15.8428C140.609 15.8428 140.43 15.8779 140.278 15.9482C140.128 16.0186 140.001 16.1138 139.895 16.2339C139.79 16.3511 139.704 16.4858 139.636 16.6382C139.572 16.7876 139.523 16.9429 139.491 17.104V18.2422C139.55 18.4473 139.632 18.6406 139.737 18.8223C139.843 19.001 139.983 19.146 140.159 19.2573C140.335 19.3657 140.556 19.4199 140.823 19.4199C141.042 19.4199 141.231 19.3745 141.39 19.2837C141.551 19.1899 141.683 19.0625 141.785 18.9014C141.891 18.7402 141.968 18.5557 142.018 18.3477C142.068 18.1367 142.093 17.9126 142.093 17.6753ZM146.571 19.187V16.7393C146.571 16.5518 146.533 16.3892 146.457 16.2515C146.383 16.1108 146.272 16.0024 146.123 15.9263C145.973 15.8501 145.789 15.812 145.569 15.812C145.364 15.812 145.184 15.8472 145.028 15.9175C144.876 15.9878 144.756 16.0801 144.668 16.1943C144.583 16.3086 144.541 16.4316 144.541 16.5635H143.728C143.728 16.3936 143.772 16.2251 143.86 16.0581C143.947 15.8911 144.073 15.7402 144.237 15.6055C144.404 15.4678 144.604 15.3594 144.835 15.2803C145.069 15.1982 145.33 15.1572 145.617 15.1572C145.963 15.1572 146.268 15.2158 146.531 15.333C146.798 15.4502 147.006 15.6274 147.155 15.8647C147.308 16.0991 147.384 16.3936 147.384 16.748V18.9629C147.384 19.1211 147.397 19.2896 147.423 19.4683C147.453 19.647 147.495 19.8008 147.551 19.9297V20H146.703C146.662 19.9062 146.63 19.7817 146.606 19.6265C146.583 19.4683 146.571 19.3218 146.571 19.187ZM146.712 17.1172L146.72 17.6885H145.899C145.667 17.6885 145.461 17.7075 145.279 17.7456C145.097 17.7808 144.945 17.835 144.822 17.9082C144.699 17.9814 144.605 18.0737 144.541 18.1851C144.476 18.2935 144.444 18.4209 144.444 18.5674C144.444 18.7168 144.478 18.853 144.545 18.9761C144.612 19.0991 144.714 19.1973 144.848 19.2705C144.986 19.3408 145.154 19.376 145.354 19.376C145.603 19.376 145.822 19.3232 146.013 19.2178C146.203 19.1123 146.354 18.9834 146.465 18.8311C146.58 18.6787 146.641 18.5308 146.65 18.3872L146.997 18.7783C146.977 18.9014 146.921 19.0376 146.83 19.187C146.739 19.3364 146.618 19.48 146.465 19.6177C146.316 19.7524 146.137 19.8652 145.929 19.9561C145.724 20.0439 145.493 20.0879 145.235 20.0879C144.913 20.0879 144.63 20.0249 144.387 19.8989C144.147 19.7729 143.959 19.6045 143.824 19.3936C143.693 19.1797 143.627 18.9409 143.627 18.6772C143.627 18.4224 143.676 18.1982 143.776 18.0049C143.876 17.8086 144.019 17.646 144.207 17.5171C144.394 17.3853 144.62 17.2856 144.883 17.2183C145.147 17.1509 145.442 17.1172 145.767 17.1172H146.712ZM149.366 15.2451V20H148.549V15.2451H149.366ZM148.487 13.9839C148.487 13.8521 148.527 13.7407 148.606 13.6499C148.688 13.5591 148.808 13.5137 148.966 13.5137C149.121 13.5137 149.24 13.5591 149.322 13.6499C149.407 13.7407 149.45 13.8521 149.45 13.9839C149.45 14.1099 149.407 14.2183 149.322 14.3091C149.24 14.397 149.121 14.4409 148.966 14.4409C148.808 14.4409 148.688 14.397 148.606 14.3091C148.527 14.2183 148.487 14.1099 148.487 13.9839ZM151.304 15.9922V20H150.491V15.2451H151.282L151.304 15.9922ZM152.79 15.2188L152.785 15.9746C152.718 15.96 152.653 15.9512 152.592 15.9482C152.533 15.9424 152.466 15.9395 152.39 15.9395C152.202 15.9395 152.037 15.9688 151.893 16.0273C151.75 16.0859 151.628 16.168 151.528 16.2734C151.429 16.3789 151.35 16.5049 151.291 16.6514C151.235 16.7949 151.199 16.9531 151.181 17.126L150.953 17.2578C150.953 16.9707 150.98 16.7012 151.036 16.4492C151.095 16.1973 151.184 15.9746 151.304 15.7812C151.424 15.585 151.577 15.4326 151.761 15.3242C151.949 15.2129 152.171 15.1572 152.429 15.1572C152.488 15.1572 152.555 15.1646 152.631 15.1792C152.708 15.1909 152.76 15.2041 152.79 15.2188ZM156.13 18.7388C156.13 18.6216 156.103 18.5132 156.05 18.4136C156.001 18.311 155.897 18.2188 155.738 18.1367C155.583 18.0518 155.349 17.9785 155.035 17.917C154.772 17.8613 154.533 17.7954 154.319 17.7192C154.108 17.6431 153.928 17.5508 153.779 17.4424C153.632 17.334 153.519 17.2065 153.44 17.0601C153.361 16.9136 153.321 16.7422 153.321 16.5459C153.321 16.3584 153.362 16.1812 153.445 16.0142C153.529 15.8472 153.648 15.6992 153.8 15.5703C153.956 15.4414 154.142 15.3403 154.359 15.2671C154.575 15.1938 154.817 15.1572 155.084 15.1572C155.465 15.1572 155.79 15.2246 156.059 15.3594C156.329 15.4941 156.535 15.6743 156.679 15.8999C156.822 16.1226 156.894 16.3701 156.894 16.6426H156.081C156.081 16.5107 156.042 16.3833 155.963 16.2603C155.886 16.1343 155.774 16.0303 155.624 15.9482C155.478 15.8662 155.298 15.8252 155.084 15.8252C154.858 15.8252 154.675 15.8604 154.534 15.9307C154.397 15.998 154.296 16.0845 154.231 16.1899C154.17 16.2954 154.139 16.4067 154.139 16.5239C154.139 16.6118 154.154 16.6909 154.183 16.7612C154.215 16.8286 154.271 16.8916 154.35 16.9502C154.429 17.0059 154.54 17.0586 154.684 17.1084C154.827 17.1582 155.01 17.208 155.233 17.2578C155.623 17.3457 155.944 17.4512 156.196 17.5742C156.447 17.6973 156.635 17.8481 156.758 18.0269C156.881 18.2056 156.943 18.4224 156.943 18.6772C156.943 18.8853 156.899 19.0757 156.811 19.2485C156.726 19.4214 156.601 19.5708 156.437 19.6968C156.276 19.8198 156.083 19.9165 155.857 19.9868C155.634 20.0542 155.384 20.0879 155.106 20.0879C154.687 20.0879 154.332 20.0132 154.042 19.8638C153.752 19.7144 153.532 19.521 153.383 19.2837C153.234 19.0464 153.159 18.7959 153.159 18.5322H153.976C153.988 18.7549 154.052 18.9321 154.17 19.064C154.287 19.1929 154.43 19.2852 154.6 19.3408C154.77 19.3936 154.939 19.4199 155.106 19.4199C155.328 19.4199 155.514 19.3906 155.664 19.332C155.816 19.2734 155.932 19.1929 156.011 19.0903C156.09 18.9878 156.13 18.8706 156.13 18.7388Z" fill="white"/>
<path opacity="0.5" d="M93.396 36.144H92.1006V35.4639H93.396C93.6216 35.4639 93.8039 35.4274 93.9429 35.3545C94.0819 35.2816 94.1833 35.1813 94.2471 35.0537C94.3132 34.9238 94.3462 34.7757 94.3462 34.6094C94.3462 34.4521 94.3132 34.3052 94.2471 34.1685C94.1833 34.0295 94.0819 33.9178 93.9429 33.8335C93.8039 33.7492 93.6216 33.707 93.396 33.707H92.3638V38H91.5059V33.0234H93.396C93.7811 33.0234 94.1081 33.0918 94.377 33.2285C94.6481 33.363 94.8543 33.5498 94.9956 33.7891C95.1369 34.026 95.2075 34.2972 95.2075 34.6025C95.2075 34.9238 95.1369 35.1995 94.9956 35.4297C94.8543 35.6598 94.6481 35.8364 94.377 35.9595C94.1081 36.0825 93.7811 36.144 93.396 36.144ZM96.5817 35.0059V38H95.7579V34.3018H96.5441L96.5817 35.0059ZM97.713 34.2778L97.7062 35.0435C97.6561 35.0343 97.6014 35.0275 97.5421 35.0229C97.4852 35.0184 97.4282 35.0161 97.3712 35.0161C97.23 35.0161 97.1058 35.0366 96.9987 35.0776C96.8916 35.1164 96.8016 35.1733 96.7287 35.2485C96.658 35.3215 96.6033 35.4103 96.5646 35.5151C96.5259 35.62 96.5031 35.7373 96.4962 35.8672L96.3082 35.8809C96.3082 35.6484 96.331 35.4331 96.3766 35.2349C96.4222 35.0366 96.4905 34.8623 96.5817 34.7119C96.6751 34.5615 96.7913 34.4442 96.9303 34.3599C97.0716 34.2756 97.2345 34.2334 97.4191 34.2334C97.4692 34.2334 97.5228 34.238 97.5797 34.2471C97.639 34.2562 97.6834 34.2664 97.713 34.2778ZM97.843 36.1919V36.1133C97.843 35.8467 97.8818 35.5994 97.9593 35.3716C98.0367 35.1414 98.1484 34.9421 98.2942 34.7734C98.4423 34.6025 98.6223 34.4704 98.8343 34.377C99.0485 34.2812 99.29 34.2334 99.5589 34.2334C99.83 34.2334 100.072 34.2812 100.283 34.377C100.498 34.4704 100.679 34.6025 100.827 34.7734C100.975 34.9421 101.088 35.1414 101.165 35.3716C101.243 35.5994 101.282 35.8467 101.282 36.1133V36.1919C101.282 36.4585 101.243 36.7057 101.165 36.9336C101.088 37.1615 100.975 37.3608 100.827 37.5317C100.679 37.7004 100.499 37.8325 100.287 37.9282C100.075 38.0216 99.8346 38.0684 99.5657 38.0684C99.2945 38.0684 99.0519 38.0216 98.8377 37.9282C98.6258 37.8325 98.4457 37.7004 98.2976 37.5317C98.1495 37.3608 98.0367 37.1615 97.9593 36.9336C97.8818 36.7057 97.843 36.4585 97.843 36.1919ZM98.6668 36.1133V36.1919C98.6668 36.3582 98.6839 36.5155 98.718 36.6636C98.7522 36.8117 98.8058 36.9416 98.8787 37.0532C98.9516 37.1649 99.045 37.2526 99.159 37.3164C99.2729 37.3802 99.4085 37.4121 99.5657 37.4121C99.7184 37.4121 99.8505 37.3802 99.9622 37.3164C100.076 37.2526 100.17 37.1649 100.242 37.0532C100.315 36.9416 100.369 36.8117 100.403 36.6636C100.44 36.5155 100.458 36.3582 100.458 36.1919V36.1133C100.458 35.9492 100.44 35.7943 100.403 35.6484C100.369 35.5003 100.314 35.3693 100.239 35.2554C100.166 35.1414 100.073 35.0526 99.9588 34.9888C99.8471 34.9227 99.7138 34.8896 99.5589 34.8896C99.4039 34.8896 99.2695 34.9227 99.1555 34.9888C99.0439 35.0526 98.9516 35.1414 98.8787 35.2554C98.8058 35.3693 98.7522 35.5003 98.718 35.6484C98.6839 35.7943 98.6668 35.9492 98.6668 36.1133ZM102.892 38H102.064V34.0625C102.064 33.764 102.124 33.5122 102.242 33.3071C102.363 33.1021 102.535 32.946 102.758 32.8389C102.984 32.7318 103.252 32.6782 103.561 32.6782C103.744 32.6782 103.919 32.6976 104.088 32.7363C104.259 32.7751 104.435 32.8241 104.618 32.8833L104.491 33.5532C104.375 33.5145 104.246 33.478 104.105 33.4438C103.964 33.4074 103.801 33.3892 103.616 33.3892C103.368 33.3892 103.184 33.4461 103.066 33.5601C102.95 33.6717 102.892 33.8392 102.892 34.0625V38ZM103.633 34.3018V34.9033H101.497V34.3018H103.633ZM105.007 34.3018V38H104.184V34.3018H105.007ZM107.482 34.3018V34.9033H105.397V34.3018H107.482ZM105.999 33.396H106.822V36.978C106.822 37.092 106.838 37.1797 106.87 37.2412C106.904 37.3005 106.951 37.3403 107.01 37.3608C107.07 37.3813 107.139 37.3916 107.219 37.3916C107.276 37.3916 107.33 37.3882 107.383 37.3813C107.435 37.3745 107.477 37.3677 107.509 37.3608L107.513 37.9897C107.444 38.0103 107.365 38.0285 107.273 38.0444C107.185 38.0604 107.082 38.0684 106.966 38.0684C106.777 38.0684 106.609 38.0353 106.463 37.9692C106.318 37.9009 106.204 37.7904 106.122 37.6377C106.04 37.485 105.999 37.2822 105.999 37.0293V33.396ZM110.408 35.0127V39.4219H109.584V34.3018H110.343L110.408 35.0127ZM112.818 36.1167V36.1885C112.818 36.4574 112.786 36.7069 112.722 36.937C112.66 37.1649 112.568 37.3643 112.445 37.5352C112.324 37.7038 112.175 37.8348 111.997 37.9282C111.82 38.0216 111.615 38.0684 111.382 38.0684C111.152 38.0684 110.95 38.0262 110.777 37.9419C110.606 37.8553 110.462 37.7334 110.343 37.5762C110.225 37.4189 110.129 37.2344 110.056 37.0225C109.985 36.8083 109.935 36.5736 109.906 36.3184V36.0415C109.935 35.7703 109.985 35.5243 110.056 35.3032C110.129 35.0822 110.225 34.8919 110.343 34.7324C110.462 34.5729 110.606 34.4499 110.777 34.3633C110.948 34.2767 111.147 34.2334 111.375 34.2334C111.608 34.2334 111.814 34.279 111.994 34.3701C112.174 34.459 112.326 34.5866 112.449 34.7529C112.572 34.917 112.664 35.1152 112.725 35.3477C112.787 35.5778 112.818 35.8341 112.818 36.1167ZM111.994 36.1885V36.1167C111.994 35.9458 111.978 35.7874 111.946 35.6416C111.914 35.4935 111.864 35.3636 111.796 35.252C111.727 35.1403 111.64 35.0537 111.533 34.9922C111.428 34.9284 111.301 34.8965 111.153 34.8965C111.007 34.8965 110.882 34.9215 110.777 34.9717C110.672 35.0195 110.585 35.0868 110.514 35.1733C110.443 35.2599 110.389 35.3613 110.35 35.4775C110.311 35.5915 110.284 35.7157 110.268 35.8501V36.5132C110.295 36.6772 110.342 36.8276 110.408 36.9644C110.474 37.1011 110.568 37.2104 110.688 37.2925C110.811 37.3722 110.969 37.4121 111.16 37.4121C111.308 37.4121 111.435 37.3802 111.539 37.3164C111.644 37.2526 111.73 37.1649 111.796 37.0532C111.864 36.9393 111.914 36.8083 111.946 36.6602C111.978 36.512 111.994 36.3548 111.994 36.1885ZM115.009 38.0684C114.735 38.0684 114.488 38.0239 114.267 37.9351C114.048 37.8439 113.861 37.7174 113.707 37.5557C113.554 37.3939 113.437 37.2036 113.354 36.9849C113.272 36.7661 113.231 36.5303 113.231 36.2773V36.1406C113.231 35.8512 113.274 35.5892 113.358 35.3545C113.442 35.1198 113.56 34.9193 113.71 34.7529C113.86 34.5843 114.038 34.4556 114.243 34.3667C114.448 34.2778 114.67 34.2334 114.91 34.2334C115.174 34.2334 115.405 34.2778 115.603 34.3667C115.802 34.4556 115.966 34.5809 116.096 34.7427C116.228 34.9022 116.326 35.0924 116.39 35.3135C116.456 35.5345 116.489 35.7783 116.489 36.0449V36.397H113.631V35.8057H115.675V35.7407C115.671 35.5926 115.641 35.4536 115.586 35.3237C115.534 35.1938 115.453 35.089 115.344 35.0093C115.234 34.9295 115.089 34.8896 114.906 34.8896C114.77 34.8896 114.648 34.9193 114.541 34.9785C114.436 35.0355 114.348 35.1187 114.277 35.228C114.207 35.3374 114.152 35.4696 114.113 35.6245C114.077 35.7772 114.059 35.9492 114.059 36.1406V36.2773C114.059 36.4391 114.08 36.5895 114.124 36.7285C114.169 36.8652 114.235 36.9849 114.322 37.0874C114.408 37.1899 114.513 37.2708 114.636 37.3301C114.759 37.387 114.899 37.4155 115.057 37.4155C115.255 37.4155 115.431 37.3757 115.586 37.2959C115.741 37.2161 115.876 37.1034 115.99 36.9575L116.424 37.3779C116.344 37.4941 116.24 37.6058 116.113 37.7129C115.985 37.8177 115.829 37.9032 115.645 37.9692C115.462 38.0353 115.25 38.0684 115.009 38.0684ZM117.818 35.0059V38H116.995V34.3018H117.781L117.818 35.0059ZM118.95 34.2778L118.943 35.0435C118.893 35.0343 118.838 35.0275 118.779 35.0229C118.722 35.0184 118.665 35.0161 118.608 35.0161C118.467 35.0161 118.343 35.0366 118.235 35.0776C118.128 35.1164 118.038 35.1733 117.965 35.2485C117.895 35.3215 117.84 35.4103 117.801 35.5151C117.763 35.62 117.74 35.7373 117.733 35.8672L117.545 35.8809C117.545 35.6484 117.568 35.4331 117.613 35.2349C117.659 35.0366 117.727 34.8623 117.818 34.7119C117.912 34.5615 118.028 34.4442 118.167 34.3599C118.308 34.2756 118.471 34.2334 118.656 34.2334C118.706 34.2334 118.76 34.238 118.817 34.2471C118.876 34.2562 118.92 34.2664 118.95 34.2778ZM121.743 32.75V38H120.922V32.75H121.743ZM121.599 36.0142L121.332 36.0107C121.335 35.7555 121.37 35.5197 121.438 35.3032C121.509 35.0868 121.607 34.8988 121.732 34.7393C121.86 34.5775 122.013 34.4533 122.19 34.3667C122.368 34.2778 122.565 34.2334 122.782 34.2334C122.964 34.2334 123.128 34.2585 123.274 34.3086C123.422 34.3587 123.55 34.4396 123.657 34.5513C123.764 34.6606 123.845 34.8042 123.899 34.9819C123.956 35.1574 123.985 35.3716 123.985 35.6245V38H123.158V35.6177C123.158 35.4399 123.131 35.2987 123.079 35.1938C123.029 35.089 122.955 35.0138 122.857 34.9683C122.759 34.9204 122.639 34.8965 122.498 34.8965C122.35 34.8965 122.219 34.9261 122.105 34.9854C121.993 35.0446 121.9 35.1255 121.825 35.228C121.749 35.3306 121.692 35.4491 121.654 35.5835C121.617 35.7179 121.599 35.8615 121.599 36.0142ZM124.522 36.1919V36.1133C124.522 35.8467 124.56 35.5994 124.638 35.3716C124.715 35.1414 124.827 34.9421 124.973 34.7734C125.121 34.6025 125.301 34.4704 125.513 34.377C125.727 34.2812 125.968 34.2334 126.237 34.2334C126.509 34.2334 126.75 34.2812 126.962 34.377C127.176 34.4704 127.357 34.6025 127.505 34.7734C127.654 34.9421 127.766 35.1414 127.844 35.3716C127.921 35.5994 127.96 35.8467 127.96 36.1133V36.1919C127.96 36.4585 127.921 36.7057 127.844 36.9336C127.766 37.1615 127.654 37.3608 127.505 37.5317C127.357 37.7004 127.177 37.8325 126.965 37.9282C126.753 38.0216 126.513 38.0684 126.244 38.0684C125.973 38.0684 125.73 38.0216 125.516 37.9282C125.304 37.8325 125.124 37.7004 124.976 37.5317C124.828 37.3608 124.715 37.1615 124.638 36.9336C124.56 36.7057 124.522 36.4585 124.522 36.1919ZM125.345 36.1133V36.1919C125.345 36.3582 125.362 36.5155 125.397 36.6636C125.431 36.8117 125.484 36.9416 125.557 37.0532C125.63 37.1649 125.724 37.2526 125.837 37.3164C125.951 37.3802 126.087 37.4121 126.244 37.4121C126.397 37.4121 126.529 37.3802 126.641 37.3164C126.755 37.2526 126.848 37.1649 126.921 37.0532C126.994 36.9416 127.047 36.8117 127.082 36.6636C127.118 36.5155 127.136 36.3582 127.136 36.1919V36.1133C127.136 35.9492 127.118 35.7943 127.082 35.6484C127.047 35.5003 126.993 35.3693 126.918 35.2554C126.845 35.1414 126.751 35.0526 126.637 34.9888C126.526 34.9227 126.392 34.8896 126.237 34.8896C126.082 34.8896 125.948 34.9227 125.834 34.9888C125.722 35.0526 125.63 35.1414 125.557 35.2554C125.484 35.3693 125.431 35.5003 125.397 35.6484C125.362 35.7943 125.345 35.9492 125.345 36.1133ZM130.736 37.1284V34.3018H131.563V38H130.783L130.736 37.1284ZM130.852 36.3594L131.129 36.3525C131.129 36.6009 131.101 36.8299 131.047 37.0396C130.992 37.2469 130.908 37.4281 130.794 37.583C130.68 37.7357 130.534 37.8553 130.356 37.9419C130.178 38.0262 129.965 38.0684 129.717 38.0684C129.537 38.0684 129.372 38.0422 129.221 37.9897C129.071 37.9373 128.941 37.8564 128.832 37.7471C128.725 37.6377 128.641 37.4953 128.582 37.3198C128.523 37.1444 128.493 36.9347 128.493 36.6909V34.3018H129.317V36.6978C129.317 36.8322 129.333 36.945 129.365 37.0361C129.397 37.125 129.44 37.1968 129.495 37.2515C129.549 37.3062 129.613 37.3449 129.686 37.3677C129.759 37.3905 129.837 37.4019 129.919 37.4019C130.153 37.4019 130.338 37.3563 130.472 37.2651C130.609 37.1717 130.706 37.0464 130.763 36.8892C130.822 36.7319 130.852 36.5553 130.852 36.3594ZM133.094 35.0059V38H132.27V34.3018H133.056L133.094 35.0059ZM134.225 34.2778L134.219 35.0435C134.168 35.0343 134.114 35.0275 134.055 35.0229C133.998 35.0184 133.941 35.0161 133.884 35.0161C133.742 35.0161 133.618 35.0366 133.511 35.0776C133.404 35.1164 133.314 35.1733 133.241 35.2485C133.17 35.3215 133.116 35.4103 133.077 35.5151C133.038 35.62 133.015 35.7373 133.009 35.8672L132.821 35.8809C132.821 35.6484 132.843 35.4331 132.889 35.2349C132.935 35.0366 133.003 34.8623 133.094 34.7119C133.187 34.5615 133.304 34.4442 133.443 34.3599C133.584 34.2756 133.747 34.2334 133.931 34.2334C133.982 34.2334 134.035 34.238 134.092 34.2471C134.151 34.2562 134.196 34.2664 134.225 34.2778Z" fill="white"/>
<circle cx="96.5932" cy="48.5932" r="5.59322" fill="#F9E160"/>
<g filter="url(#filter3_i_2_189)">
<circle cx="96.5932" cy="48.5932" r="4.64522" fill="#FE881C" fill-opacity="0.72"/>
</g>
<g filter="url(#filter4_d_2_189)">
<path d="M96.3787 51.7216V51.0925C95.7023 51.0413 95.1734 50.799 94.792 50.3656L95.2346 49.7365C95.5479 50.0813 95.9293 50.2887 96.3787 50.3586V49.0096C96.1653 48.9536 95.9883 48.9 95.8475 48.8488C95.7068 48.7929 95.5593 48.716 95.4049 48.6181C95.2505 48.5156 95.1325 48.3851 95.0508 48.2267C94.9736 48.0636 94.935 47.8725 94.935 47.6535C94.935 47.2947 95.0667 46.9895 95.33 46.7378C95.5933 46.4862 95.9429 46.3417 96.3787 46.3045V45.6544H96.9235V46.3115C97.4728 46.372 97.9291 46.5817 98.2923 46.9406L97.836 47.5487C97.5863 47.297 97.2821 47.1339 96.9235 47.0594V48.2616C97.0915 48.3082 97.2345 48.3525 97.3525 48.3944C97.4706 48.4364 97.5999 48.497 97.7407 48.5762C97.886 48.6507 98.0017 48.7346 98.088 48.8278C98.1742 48.9164 98.2469 49.0329 98.3059 49.1773C98.3649 49.3218 98.3944 49.4849 98.3944 49.6666C98.3944 50.0487 98.2696 50.3726 98.0199 50.6382C97.7747 50.8992 97.4093 51.0506 96.9235 51.0925V51.7216H96.3787ZM97.4206 50.1349C97.5296 50.0184 97.584 49.888 97.584 49.7435C97.584 49.599 97.5273 49.4825 97.4138 49.394C97.3003 49.3008 97.1369 49.2216 96.9235 49.1563V50.3656C97.1459 50.3283 97.3117 50.2514 97.4206 50.1349ZM95.7522 47.5976C95.7522 47.8213 95.961 47.9937 96.3787 48.1149V47.0244C96.1835 47.0431 96.0291 47.106 95.9156 47.2132C95.8067 47.3157 95.7522 47.4438 95.7522 47.5976Z" fill="#FFEA7C"/>
</g>
<g style="mix-blend-mode:overlay" filter="url(#filter5_f_2_189)">
<circle cx="96.688" cy="46.9816" r="3.03361" fill="white"/>
</g>
<path d="M107.568 45.2451V51.0932H106.507V46.4828L105.101 46.9475V46.0903L107.448 45.2451H107.568ZM113.316 50.2601V51.0932H109.367V50.3802L111.261 48.3334C111.459 48.1091 111.615 47.9141 111.73 47.7486C111.845 47.583 111.926 47.4335 111.974 47.3C112.025 47.1638 112.05 47.0343 112.05 46.9114C112.05 46.7325 112.018 46.5763 111.954 46.4428C111.89 46.3066 111.797 46.2011 111.674 46.1263C111.554 46.0516 111.406 46.0142 111.229 46.0142C111.034 46.0142 110.868 46.0596 110.729 46.1504C110.592 46.2385 110.488 46.3613 110.416 46.5189C110.347 46.6764 110.312 46.8567 110.312 47.0596H109.251C109.251 46.7151 109.331 46.4014 109.491 46.1183C109.651 45.8326 109.881 45.6043 110.18 45.4334C110.479 45.2625 110.834 45.177 111.245 45.177C111.646 45.177 111.985 45.2438 112.263 45.3773C112.54 45.5081 112.751 45.6951 112.896 45.9381C113.04 46.1811 113.112 46.4708 113.112 46.8073C113.112 46.9942 113.081 47.1785 113.02 47.36C112.958 47.5416 112.872 47.7219 112.759 47.9008C112.65 48.077 112.519 48.2559 112.367 48.4375C112.215 48.6191 112.045 48.8047 111.858 48.9943L110.721 50.2601H113.316ZM117.751 47.6765V48.6578C117.751 49.1065 117.705 49.4897 117.614 49.8074C117.524 50.1252 117.393 50.3856 117.222 50.5885C117.051 50.7888 116.847 50.937 116.609 51.0331C116.371 51.1266 116.107 51.1733 115.816 51.1733C115.584 51.1733 115.367 51.144 115.167 51.0852C114.967 51.0238 114.786 50.9303 114.626 50.8048C114.469 50.6766 114.332 50.5137 114.218 50.3161C114.105 50.1185 114.019 49.8822 113.957 49.6072C113.899 49.3321 113.869 49.0157 113.869 48.6578V47.6765C113.869 47.2279 113.915 46.846 114.005 46.5309C114.099 46.2158 114.231 45.9581 114.402 45.7578C114.573 45.5575 114.777 45.412 115.015 45.3212C115.252 45.2277 115.517 45.181 115.808 45.181C116.043 45.181 116.259 45.2104 116.457 45.2691C116.657 45.3279 116.836 45.42 116.994 45.5455C117.154 45.6684 117.29 45.8286 117.402 46.0262C117.514 46.2211 117.6 46.4561 117.658 46.7312C117.72 47.0035 117.751 47.3186 117.751 47.6765ZM116.693 48.802V47.5283C116.693 47.304 116.68 47.109 116.653 46.9435C116.629 46.7752 116.593 46.6324 116.545 46.5149C116.497 46.3974 116.437 46.3026 116.365 46.2305C116.293 46.1557 116.21 46.101 116.116 46.0662C116.023 46.0315 115.92 46.0142 115.808 46.0142C115.669 46.0142 115.545 46.0422 115.435 46.0983C115.326 46.1517 115.234 46.2371 115.159 46.3546C115.084 46.4721 115.027 46.6284 114.987 46.8233C114.949 47.0156 114.931 47.2506 114.931 47.5283V48.802C114.931 49.0263 114.943 49.2226 114.967 49.3909C114.993 49.5591 115.031 49.7033 115.079 49.8235C115.13 49.9436 115.19 50.0424 115.259 50.1199C115.331 50.1946 115.414 50.2507 115.507 50.2881C115.601 50.3228 115.704 50.3402 115.816 50.3402C115.957 50.3402 116.082 50.3121 116.188 50.2561C116.298 50.2 116.39 50.1119 116.465 49.9917C116.54 49.8689 116.596 49.71 116.633 49.515C116.673 49.3174 116.693 49.0798 116.693 48.802Z" fill="white"/>
<defs>
<filter id="filter0_i_2_189" x="73.8701" y="79.9865" width="12.4576" height="12.7119" filterUnits="userSpaceOnUse" color-interpolation-filters="sRGB">
<feFlood flood-opacity="0" result="BackgroundImageFix"/>
<feBlend mode="normal" in="SourceGraphic" in2="BackgroundImageFix" result="shape"/>
<feColorMatrix in="SourceAlpha" type="matrix" values="0 0 0 0 0 0 0 0 0 0 0 0 0 0 0 0 0 0 127 0" result="hardAlpha"/>
<feMorphology radius="0.254237" operator="erode" in="SourceAlpha" result="effect1_innerShadow_2_189"/>
<feOffset dy="0.254237"/>
<feComposite in2="hardAlpha" operator="arithmetic" k2="-1" k3="1"/>
<feColorMatrix type="matrix" values="0 0 0 0 0 0 0 0 0 0 0 0 0 0 0 0 0 0 0.25 0"/>
<feBlend mode="normal" in2="shape" result="effect1_innerShadow_2_189"/>
</filter>
<filter id="filter1_d_2_189" x="77.6837" y="82.2747" width="4.83051" height="8.38983" filterUnits="userSpaceOnUse" color-interpolation-filters="sRGB">
<feFlood flood-opacity="0" result="BackgroundImageFix"/>
<feColorMatrix in="SourceAlpha" type="matrix" values="0 0 0 0 0 0 0 0 0 0 0 0 0 0 0 0 0 0 127 0" result="hardAlpha"/>
<feOffset dy="0.254237"/>
<feComposite in2="hardAlpha" operator="out"/>
<feColorMatrix type="matrix" values="0 0 0 0 0 0 0 0 0 0 0 0 0 0 0 0 0 0 0.25 0"/>
<feBlend mode="normal" in2="BackgroundImageFix" result="effect1_dropShadow_2_189"/>
<feBlend mode="normal" in="SourceGraphic" in2="effect1_dropShadow_2_189" result="shape"/>
</filter>
<filter id="filter2_f_2_189" x="70.0566" y="73.8848" width="20.339" height="20.339" filterUnits="userSpaceOnUse" color-interpolation-filters="sRGB">
<feFlood flood-opacity="0" result="BackgroundImageFix"/>
<feBlend mode="normal" in="SourceGraphic" in2="BackgroundImageFix" result="shape"/>
<feGaussianBlur stdDeviation="3.05085" result="effect1_foregroundBlur_2_189"/>
</filter>
<filter id="filter3_i_2_189" x="91.948" y="43.948" width="9.29044" height="9.48004" filterUnits="userSpaceOnUse" color-interpolation-filters="sRGB">
<feFlood flood-opacity="0" result="BackgroundImageFix"/>
<feBlend mode="normal" in="SourceGraphic" in2="BackgroundImageFix" result="shape"/>
<feColorMatrix in="SourceAlpha" type="matrix" values="0 0 0 0 0 0 0 0 0 0 0 0 0 0 0 0 0 0 127 0" result="hardAlpha"/>
<feMorphology radius="0.189601" operator="erode" in="SourceAlpha" result="effect1_innerShadow_2_189"/>
<feOffset dy="0.189601"/>
<feComposite in2="hardAlpha" operator="arithmetic" k2="-1" k3="1"/>
<feColorMatrix type="matrix" values="0 0 0 0 0 0 0 0 0 0 0 0 0 0 0 0 0 0 0.25 0"/>
<feBlend mode="normal" in2="shape" result="effect1_innerShadow_2_189"/>
</filter>
<filter id="filter4_d_2_189" x="94.792" y="45.6544" width="3.60242" height="6.25682" filterUnits="userSpaceOnUse" color-interpolation-filters="sRGB">
<feFlood flood-opacity="0" result="BackgroundImageFix"/>
<feColorMatrix in="SourceAlpha" type="matrix" values="0 0 0 0 0 0 0 0 0 0 0 0 0 0 0 0 0 0 127 0" result="hardAlpha"/>
<feOffset dy="0.189601"/>
<feComposite in2="hardAlpha" operator="out"/>
<feColorMatrix type="matrix" values="0 0 0 0 0 0 0 0 0 0 0 0 0 0 0 0 0 0 0.25 0"/>
<feBlend mode="normal" in2="BackgroundImageFix" result="effect1_dropShadow_2_189"/>
<feBlend mode="normal" in="SourceGraphic" in2="effect1_dropShadow_2_189" result="shape"/>
</filter>
<filter id="filter5_f_2_189" x="89.104" y="39.3976" width="15.168" height="15.1681" filterUnits="userSpaceOnUse" color-interpolation-filters="sRGB">
<feFlood flood-opacity="0" result="BackgroundImageFix"/>
<feBlend mode="normal" in="SourceGraphic" in2="BackgroundImageFix" result="shape"/>
<feGaussianBlur stdDeviation="2.27521" result="effect1_foregroundBlur_2_189"/>
</filter>
</defs>
</svg>
