<svg width="190" height="27" viewBox="0 0 190 27" fill="none" xmlns="http://www.w3.org/2000/svg">
<rect width="190" height="27" rx="13.5" fill="#32363C"/>
<path d="M10.092 9.75V16.5H8.92743V9.75H10.092ZM12.597 15.6211L13.7045 11.7451H14.9174L13.287 16.5H12.5487L12.597 15.6211ZM11.7884 11.7451L12.9091 15.6299L12.9486 16.5H12.2059L10.5712 11.7451H11.7884ZM16.5787 9.75V16.5H15.4141V9.75H16.5787ZM22.4941 10.084V16.5H21.3295V11.4419L19.787 11.9517V11.0112L22.3622 10.084H22.4941Z" fill="white"/>
<path d="M36.3386 1.3154L36.3386 25.6846" stroke="white" stroke-opacity="0.2" stroke-width="0.3"/>
<path d="M54.0266 13.1763V14.4385H48.6662V13.1763H54.0266ZM52.0285 11.0225V16.7158H50.6696V11.0225H52.0285ZM60.0263 16.3828V17.5H54.7304V16.5439L57.2709 13.7993C57.5359 13.4985 57.7454 13.2371 57.8993 13.0151C58.0533 12.7931 58.1625 12.5926 58.227 12.4136C58.295 12.231 58.329 12.0573 58.329 11.8926C58.329 11.6527 58.286 11.4432 58.2001 11.2642C58.1142 11.0815 57.9888 10.9401 57.8241 10.8398C57.663 10.7396 57.4643 10.6895 57.2279 10.6895C56.9665 10.6895 56.7427 10.7503 56.5566 10.8721C56.3739 10.9902 56.2343 11.1549 56.1376 11.3662C56.0445 11.5775 55.998 11.8192 55.998 12.0913H54.5746C54.5746 11.6294 54.682 11.2087 54.8969 10.8291C55.1117 10.446 55.4197 10.1398 55.8207 9.91064C56.2218 9.68148 56.698 9.56689 57.2494 9.56689C57.7865 9.56689 58.2413 9.65641 58.6137 9.83545C58.9861 10.0109 59.269 10.2616 59.4623 10.5874C59.6557 10.9132 59.7524 11.3018 59.7524 11.7529C59.7524 12.0036 59.7112 12.2507 59.6288 12.4941C59.5465 12.7376 59.4301 12.9793 59.2797 13.2192C59.1329 13.4556 58.9574 13.6955 58.7533 13.939C58.5492 14.1825 58.3218 14.4313 58.0712 14.6855L56.5458 16.3828H60.0263Z" fill="white"/>
<circle cx="71.8386" cy="13.5" r="7.5" fill="#F9E160"/>
<g filter="url(#filter0_i_15_251)">
<circle cx="71.8386" cy="13.5" r="6.22881" fill="#FE881C" fill-opacity="0.72"/>
</g>
<g filter="url(#filter1_d_15_251)">
<path d="M71.5509 17.6949V16.8514C70.6438 16.7826 69.9346 16.4577 69.4233 15.8766L70.0168 15.033C70.4369 15.4954 70.9482 15.7735 71.5509 15.8672V14.0583C71.2648 13.9833 71.0274 13.9114 70.8386 13.8427C70.6499 13.7677 70.4521 13.6646 70.2451 13.5334C70.0381 13.3959 69.8798 13.221 69.7703 13.0085C69.6668 12.7898 69.615 12.5336 69.615 12.2399C69.615 11.7588 69.7916 11.3495 70.1447 11.0121C70.4977 10.6747 70.9665 10.481 71.5509 10.431V9.55933H72.2814V10.4404C73.018 10.5216 73.6298 10.8028 74.1168 11.2839L73.505 12.0994C73.1702 11.7619 72.7623 11.5432 72.2814 11.4433V13.0554C72.5066 13.1179 72.6984 13.1772 72.8567 13.2335C73.015 13.2897 73.1885 13.3709 73.3772 13.4772C73.572 13.5771 73.7272 13.6896 73.8429 13.8146C73.9585 13.9333 74.0559 14.0895 74.1351 14.2832C74.2142 14.4769 74.2538 14.6956 74.2538 14.9393C74.2538 15.4517 74.0864 15.886 73.7516 16.2421C73.4228 16.5921 72.9328 16.7951 72.2814 16.8514V17.6949H71.5509ZM72.948 15.5673C73.0941 15.4111 73.1672 15.2361 73.1672 15.0424C73.1672 14.8487 73.0911 14.6925 72.9389 14.5738C72.7867 14.4488 72.5675 14.3426 72.2814 14.2551V15.8766C72.5797 15.8266 72.8019 15.7235 72.948 15.5673ZM70.7108 12.165C70.7108 12.4649 70.9908 12.6961 71.5509 12.8586V11.3964C71.2891 11.4214 71.0821 11.5057 70.93 11.6495C70.7839 11.7869 70.7108 11.9588 70.7108 12.165Z" fill="#FFEA7C"/>
</g>
<g style="mix-blend-mode:overlay" filter="url(#filter2_f_15_251)">
<circle cx="71.9657" cy="11.339" r="4.0678" fill="white"/>
</g>
<path d="M128.464 13.5898V14.7124H125.526V13.5898H128.464ZM133.035 9.6582V17.5H131.612V11.3179L129.727 11.9409V10.7915L132.874 9.6582H133.035ZM140.625 12.9185V14.2344C140.625 14.8359 140.564 15.3498 140.442 15.7759C140.321 16.202 140.145 16.5511 139.916 16.8232C139.687 17.0918 139.413 17.2905 139.094 17.4194C138.775 17.5448 138.421 17.6074 138.031 17.6074C137.719 17.6074 137.429 17.568 137.161 17.4893C136.892 17.4069 136.65 17.2816 136.435 17.1133C136.224 16.9414 136.042 16.723 135.888 16.458C135.737 16.193 135.621 15.8761 135.539 15.5073C135.46 15.1385 135.42 14.7142 135.42 14.2344V12.9185C135.42 12.3169 135.481 11.8049 135.603 11.3823C135.728 10.9598 135.906 10.6143 136.135 10.3457C136.364 10.0771 136.638 9.882 136.956 9.76025C137.275 9.63493 137.63 9.57227 138.02 9.57227C138.335 9.57227 138.625 9.61165 138.89 9.69043C139.159 9.76921 139.399 9.89274 139.61 10.061C139.825 10.2257 140.007 10.4406 140.158 10.7056C140.308 10.967 140.423 11.2821 140.501 11.6509C140.584 12.0161 140.625 12.4386 140.625 12.9185ZM139.207 14.4277V12.7197C139.207 12.4189 139.189 12.1576 139.153 11.9355C139.121 11.71 139.073 11.5184 139.008 11.3608C138.944 11.2033 138.863 11.0762 138.767 10.9795C138.67 10.8792 138.559 10.8058 138.434 10.7593C138.308 10.7127 138.17 10.6895 138.02 10.6895C137.834 10.6895 137.667 10.7271 137.52 10.8022C137.374 10.8739 137.25 10.9884 137.15 11.146C137.05 11.3035 136.973 11.513 136.919 11.7744C136.869 12.0322 136.844 12.3473 136.844 12.7197V14.4277C136.844 14.7285 136.86 14.9917 136.892 15.2173C136.928 15.4429 136.978 15.6362 137.042 15.7974C137.11 15.9585 137.191 16.091 137.284 16.1948C137.381 16.2951 137.492 16.3703 137.617 16.4204C137.742 16.467 137.88 16.4902 138.031 16.4902C138.22 16.4902 138.387 16.4526 138.53 16.3774C138.677 16.3022 138.801 16.1841 138.901 16.0229C139.001 15.8582 139.076 15.6452 139.126 15.3838C139.18 15.1188 139.207 14.8001 139.207 14.4277ZM146.689 12.9185V14.2344C146.689 14.8359 146.628 15.3498 146.507 15.7759C146.385 16.202 146.209 16.5511 145.98 16.8232C145.751 17.0918 145.477 17.2905 145.158 17.4194C144.84 17.5448 144.485 17.6074 144.095 17.6074C143.783 17.6074 143.493 17.568 143.225 17.4893C142.956 17.4069 142.715 17.2816 142.5 17.1133C142.288 16.9414 142.106 16.723 141.952 16.458C141.801 16.193 141.685 15.8761 141.603 15.5073C141.524 15.1385 141.485 14.7142 141.485 14.2344V12.9185C141.485 12.3169 141.545 11.8049 141.667 11.3823C141.792 10.9598 141.97 10.6143 142.199 10.3457C142.428 10.0771 142.702 9.882 143.021 9.76025C143.339 9.63493 143.694 9.57227 144.084 9.57227C144.399 9.57227 144.689 9.61165 144.954 9.69043C145.223 9.76921 145.463 9.89274 145.674 10.061C145.889 10.2257 146.071 10.4406 146.222 10.7056C146.372 10.967 146.487 11.2821 146.566 11.6509C146.648 12.0161 146.689 12.4386 146.689 12.9185ZM145.271 14.4277V12.7197C145.271 12.4189 145.253 12.1576 145.217 11.9355C145.185 11.71 145.137 11.5184 145.072 11.3608C145.008 11.2033 144.927 11.0762 144.831 10.9795C144.734 10.8792 144.623 10.8058 144.498 10.7593C144.372 10.7127 144.235 10.6895 144.084 10.6895C143.898 10.6895 143.731 10.7271 143.585 10.8022C143.438 10.8739 143.314 10.9884 143.214 11.146C143.114 11.3035 143.037 11.513 142.983 11.7744C142.933 12.0322 142.908 12.3473 142.908 12.7197V14.4277C142.908 14.7285 142.924 14.9917 142.956 15.2173C142.992 15.4429 143.042 15.6362 143.107 15.7974C143.175 15.9585 143.255 16.091 143.348 16.1948C143.445 16.2951 143.556 16.3703 143.681 16.4204C143.807 16.467 143.944 16.4902 144.095 16.4902C144.285 16.4902 144.451 16.4526 144.594 16.3774C144.741 16.3022 144.865 16.1841 144.965 16.0229C145.065 15.8582 145.14 15.6452 145.191 15.3838C145.244 15.1188 145.271 14.8001 145.271 14.4277ZM152.753 12.9185V14.2344C152.753 14.8359 152.692 15.3498 152.571 15.7759C152.449 16.202 152.273 16.5511 152.044 16.8232C151.815 17.0918 151.541 17.2905 151.223 17.4194C150.904 17.5448 150.549 17.6074 150.159 17.6074C149.848 17.6074 149.558 17.568 149.289 17.4893C149.02 17.4069 148.779 17.2816 148.564 17.1133C148.353 16.9414 148.17 16.723 148.016 16.458C147.866 16.193 147.749 15.8761 147.667 15.5073C147.588 15.1385 147.549 14.7142 147.549 14.2344V12.9185C147.549 12.3169 147.61 11.8049 147.731 11.3823C147.857 10.9598 148.034 10.6143 148.263 10.3457C148.492 10.0771 148.766 9.882 149.085 9.76025C149.404 9.63493 149.758 9.57227 150.148 9.57227C150.463 9.57227 150.753 9.61165 151.018 9.69043C151.287 9.76921 151.527 9.89274 151.738 10.061C151.953 10.2257 152.136 10.4406 152.286 10.7056C152.436 10.967 152.551 11.2821 152.63 11.6509C152.712 12.0161 152.753 12.4386 152.753 12.9185ZM151.335 14.4277V12.7197C151.335 12.4189 151.317 12.1576 151.282 11.9355C151.249 11.71 151.201 11.5184 151.137 11.3608C151.072 11.2033 150.992 11.0762 150.895 10.9795C150.798 10.8792 150.687 10.8058 150.562 10.7593C150.437 10.7127 150.299 10.6895 150.148 10.6895C149.962 10.6895 149.796 10.7271 149.649 10.8022C149.502 10.8739 149.378 10.9884 149.278 11.146C149.178 11.3035 149.101 11.513 149.047 11.7744C148.997 12.0322 148.972 12.3473 148.972 12.7197V14.4277C148.972 14.7285 148.988 14.9917 149.02 15.2173C149.056 15.4429 149.106 15.6362 149.171 15.7974C149.239 15.9585 149.319 16.091 149.412 16.1948C149.509 16.2951 149.62 16.3703 149.745 16.4204C149.871 16.467 150.009 16.4902 150.159 16.4902C150.349 16.4902 150.515 16.4526 150.659 16.3774C150.805 16.3022 150.929 16.1841 151.029 16.0229C151.129 15.8582 151.205 15.6452 151.255 15.3838C151.308 15.1188 151.335 14.8001 151.335 14.4277Z" fill="white"/>
<circle cx="164.5" cy="13.5" r="7.5" fill="#F9E160"/>
<g filter="url(#filter3_i_15_251)">
<circle cx="164.5" cy="13.5" r="6.22881" fill="#FE881C" fill-opacity="0.72"/>
</g>
<g filter="url(#filter4_d_15_251)">
<path d="M164.212 17.6949V16.8514C163.305 16.7826 162.596 16.4577 162.085 15.8766L162.678 15.033C163.098 15.4954 163.61 15.7735 164.212 15.8672V14.0583C163.926 13.9833 163.689 13.9114 163.5 13.8427C163.311 13.7677 163.114 13.6646 162.907 13.5334C162.7 13.3959 162.541 13.221 162.432 13.0085C162.328 12.7898 162.276 12.5336 162.276 12.2399C162.276 11.7588 162.453 11.3495 162.806 11.0121C163.159 10.6747 163.628 10.481 164.212 10.431V9.55933H164.943V10.4404C165.679 10.5216 166.291 10.8028 166.778 11.2839L166.166 12.0994C165.832 11.7619 165.424 11.5432 164.943 11.4433V13.0554C165.168 13.1179 165.36 13.1772 165.518 13.2335C165.676 13.2897 165.85 13.3709 166.039 13.4772C166.233 13.5771 166.389 13.6896 166.504 13.8146C166.62 13.9333 166.717 14.0895 166.797 14.2832C166.876 14.4769 166.915 14.6956 166.915 14.9393C166.915 15.4517 166.748 15.886 166.413 16.2421C166.084 16.5921 165.594 16.7951 164.943 16.8514V17.6949H164.212ZM165.609 15.5673C165.756 15.4111 165.829 15.2361 165.829 15.0424C165.829 14.8487 165.752 14.6925 165.6 14.5738C165.448 14.4488 165.229 14.3426 164.943 14.2551V15.8766C165.241 15.8266 165.463 15.7235 165.609 15.5673ZM163.372 12.165C163.372 12.4649 163.652 12.6961 164.212 12.8586V11.3964C163.951 11.4214 163.744 11.5057 163.591 11.6495C163.445 11.7869 163.372 11.9588 163.372 12.165Z" fill="#FFEA7C"/>
</g>
<g style="mix-blend-mode:overlay" filter="url(#filter5_f_15_251)">
<circle cx="164.627" cy="11.339" r="4.0678" fill="white"/>
</g>
<defs>
<filter id="filter0_i_15_251" x="65.6097" y="7.27118" width="12.4576" height="12.7119" filterUnits="userSpaceOnUse" color-interpolation-filters="sRGB">
<feFlood flood-opacity="0" result="BackgroundImageFix"/>
<feBlend mode="normal" in="SourceGraphic" in2="BackgroundImageFix" result="shape"/>
<feColorMatrix in="SourceAlpha" type="matrix" values="0 0 0 0 0 0 0 0 0 0 0 0 0 0 0 0 0 0 127 0" result="hardAlpha"/>
<feMorphology radius="0.254237" operator="erode" in="SourceAlpha" result="effect1_innerShadow_15_251"/>
<feOffset dy="0.254237"/>
<feComposite in2="hardAlpha" operator="arithmetic" k2="-1" k3="1"/>
<feColorMatrix type="matrix" values="0 0 0 0 0 0 0 0 0 0 0 0 0 0 0 0 0 0 0.25 0"/>
<feBlend mode="normal" in2="shape" result="effect1_innerShadow_15_251"/>
</filter>
<filter id="filter1_d_15_251" x="69.4233" y="9.55933" width="4.83051" height="8.38983" filterUnits="userSpaceOnUse" color-interpolation-filters="sRGB">
<feFlood flood-opacity="0" result="BackgroundImageFix"/>
<feColorMatrix in="SourceAlpha" type="matrix" values="0 0 0 0 0 0 0 0 0 0 0 0 0 0 0 0 0 0 127 0" result="hardAlpha"/>
<feOffset dy="0.254237"/>
<feComposite in2="hardAlpha" operator="out"/>
<feColorMatrix type="matrix" values="0 0 0 0 0 0 0 0 0 0 0 0 0 0 0 0 0 0 0.25 0"/>
<feBlend mode="normal" in2="BackgroundImageFix" result="effect1_dropShadow_15_251"/>
<feBlend mode="normal" in="SourceGraphic" in2="effect1_dropShadow_15_251" result="shape"/>
</filter>
<filter id="filter2_f_15_251" x="61.7962" y="1.16948" width="20.339" height="20.339" filterUnits="userSpaceOnUse" color-interpolation-filters="sRGB">
<feFlood flood-opacity="0" result="BackgroundImageFix"/>
<feBlend mode="normal" in="SourceGraphic" in2="BackgroundImageFix" result="shape"/>
<feGaussianBlur stdDeviation="3.05085" result="effect1_foregroundBlur_15_251"/>
</filter>
<filter id="filter3_i_15_251" x="158.271" y="7.27118" width="12.4576" height="12.7119" filterUnits="userSpaceOnUse" color-interpolation-filters="sRGB">
<feFlood flood-opacity="0" result="BackgroundImageFix"/>
<feBlend mode="normal" in="SourceGraphic" in2="BackgroundImageFix" result="shape"/>
<feColorMatrix in="SourceAlpha" type="matrix" values="0 0 0 0 0 0 0 0 0 0 0 0 0 0 0 0 0 0 127 0" result="hardAlpha"/>
<feMorphology radius="0.254237" operator="erode" in="SourceAlpha" result="effect1_innerShadow_15_251"/>
<feOffset dy="0.254237"/>
<feComposite in2="hardAlpha" operator="arithmetic" k2="-1" k3="1"/>
<feColorMatrix type="matrix" values="0 0 0 0 0 0 0 0 0 0 0 0 0 0 0 0 0 0 0.25 0"/>
<feBlend mode="normal" in2="shape" result="effect1_innerShadow_15_251"/>
</filter>
<filter id="filter4_d_15_251" x="162.085" y="9.55933" width="4.83051" height="8.38983" filterUnits="userSpaceOnUse" color-interpolation-filters="sRGB">
<feFlood flood-opacity="0" result="BackgroundImageFix"/>
<feColorMatrix in="SourceAlpha" type="matrix" values="0 0 0 0 0 0 0 0 0 0 0 0 0 0 0 0 0 0 127 0" result="hardAlpha"/>
<feOffset dy="0.254237"/>
<feComposite in2="hardAlpha" operator="out"/>
<feColorMatrix type="matrix" values="0 0 0 0 0 0 0 0 0 0 0 0 0 0 0 0 0 0 0.25 0"/>
<feBlend mode="normal" in2="BackgroundImageFix" result="effect1_dropShadow_15_251"/>
<feBlend mode="normal" in="SourceGraphic" in2="effect1_dropShadow_15_251" result="shape"/>
</filter>
<filter id="filter5_f_15_251" x="154.458" y="1.16948" width="20.339" height="20.339" filterUnits="userSpaceOnUse" color-interpolation-filters="sRGB">
<feFlood flood-opacity="0" result="BackgroundImageFix"/>
<feBlend mode="normal" in="SourceGraphic" in2="BackgroundImageFix" result="shape"/>
<feGaussianBlur stdDeviation="3.05085" result="effect1_foregroundBlur_15_251"/>
</filter>
</defs>
</svg>
