<svg width="190" height="27" viewBox="0 0 190 27" fill="none" xmlns="http://www.w3.org/2000/svg">
<rect width="190" height="27" rx="13.5" fill="#32363C"/>
<path d="M10.092 9.75V16.5H8.92743V9.75H10.092ZM12.597 15.6211L13.7045 11.7451H14.9174L13.287 16.5H12.5487L12.597 15.6211ZM11.7884 11.7451L12.9091 15.6299L12.9486 16.5H12.2059L10.5712 11.7451H11.7884ZM16.5787 9.75V16.5H15.4141V9.75H16.5787ZM23.8388 15.5859V16.5H19.5058V15.7178L21.5844 13.4722C21.8012 13.2261 21.9726 13.0122 22.0985 12.8306C22.2245 12.6489 22.3139 12.4849 22.3666 12.3384C22.4223 12.189 22.4501 12.0469 22.4501 11.9121C22.4501 11.7158 22.4149 11.5444 22.3446 11.3979C22.2743 11.2485 22.1718 11.1328 22.037 11.0508C21.9052 10.9688 21.7426 10.9277 21.5492 10.9277C21.3354 10.9277 21.1523 10.9775 20.9999 11.0771C20.8505 11.1738 20.7362 11.3086 20.6571 11.4814C20.581 11.6543 20.5429 11.8521 20.5429 12.0747H19.3783C19.3783 11.6968 19.4662 11.3525 19.642 11.042C19.8178 10.7285 20.0697 10.478 20.3979 10.2905C20.726 10.103 21.1156 10.0093 21.5668 10.0093C22.0063 10.0093 22.3783 10.0825 22.683 10.229C22.9877 10.3726 23.2191 10.5776 23.3774 10.8442C23.5356 11.1108 23.6147 11.4287 23.6147 11.7979C23.6147 12.0029 23.581 12.2051 23.5136 12.4043C23.4462 12.6035 23.351 12.8013 23.2279 12.9976C23.1078 13.1909 22.9643 13.3872 22.7973 13.5864C22.6303 13.7856 22.4442 13.9893 22.2392 14.1973L20.9911 15.5859H23.8388Z" fill="white"/>
<path d="M36.3386 1.3154L36.3386 25.6846" stroke="white" stroke-opacity="0.2" stroke-width="0.3"/>
<path d="M54.0266 13.1763V14.4385H48.6662V13.1763H54.0266ZM52.0285 11.0225V16.7158H50.6696V11.0225H52.0285ZM56.2826 12.9614H57.0829C57.3658 12.9614 57.5985 12.9131 57.7812 12.8164C57.9674 12.7161 58.1052 12.5801 58.1947 12.4082C58.2878 12.2327 58.3344 12.0304 58.3344 11.8013C58.3344 11.5757 58.2932 11.3805 58.2108 11.2158C58.1285 11.0475 58.0032 10.9186 57.8349 10.8291C57.6702 10.736 57.4589 10.6895 57.2011 10.6895C56.9934 10.6895 56.8018 10.7306 56.6264 10.813C56.4545 10.8953 56.3166 11.0135 56.2128 11.1675C56.1125 11.3179 56.0624 11.4987 56.0624 11.71H54.6391C54.6391 11.2874 54.7501 10.9168 54.9721 10.5981C55.1977 10.2759 55.502 10.0234 55.8852 9.84082C56.2683 9.6582 56.6962 9.56689 57.1689 9.56689C57.6845 9.56689 58.1357 9.65283 58.5224 9.82471C58.9127 9.993 59.2152 10.2419 59.4301 10.5713C59.6485 10.9007 59.7577 11.3089 59.7577 11.7959C59.7577 12.0286 59.7022 12.2614 59.5912 12.4941C59.4838 12.7233 59.3245 12.931 59.1132 13.1172C58.9055 13.2998 58.6495 13.4484 58.3451 13.563C58.0443 13.674 57.6988 13.7295 57.3085 13.7295H56.2826V12.9614ZM56.2826 14.0571V13.2998H57.3085C57.7489 13.2998 58.1303 13.3517 58.4525 13.4556C58.7784 13.5558 59.0469 13.6991 59.2582 13.8853C59.4695 14.0679 59.6252 14.2809 59.7255 14.5244C59.8293 14.7679 59.8813 15.0293 59.8813 15.3086C59.8813 15.6738 59.8132 15.9997 59.6772 16.2861C59.5411 16.569 59.3495 16.8089 59.1024 17.0059C58.859 17.2028 58.5725 17.3532 58.2431 17.457C57.9136 17.5573 57.5574 17.6074 57.1742 17.6074C56.8412 17.6074 56.5172 17.5627 56.2021 17.4731C55.8905 17.38 55.6094 17.2422 55.3588 17.0596C55.1081 16.8734 54.9094 16.6406 54.7626 16.3613C54.6158 16.0785 54.5424 15.7508 54.5424 15.3784H55.9657C55.9657 15.5933 56.0177 15.7848 56.1215 15.9531C56.2289 16.1214 56.3757 16.2539 56.5619 16.3506C56.7517 16.4437 56.9648 16.4902 57.2011 16.4902C57.4625 16.4902 57.6863 16.4437 57.8725 16.3506C58.0622 16.2539 58.2073 16.1178 58.3075 15.9424C58.4078 15.7633 58.4579 15.5503 58.4579 15.3032C58.4579 15.0096 58.4024 14.7715 58.2914 14.5889C58.1804 14.4062 58.0211 14.272 57.8134 14.186C57.6093 14.1001 57.3658 14.0571 57.0829 14.0571H56.2826Z" fill="white"/>
<circle cx="71.8386" cy="13.5" r="7.5" fill="#F9E160"/>
<g filter="url(#filter0_i_15_252)">
<circle cx="71.8386" cy="13.5" r="6.22881" fill="#FE881C" fill-opacity="0.72"/>
</g>
<g filter="url(#filter1_d_15_252)">
<path d="M71.5509 17.6949V16.8514C70.6438 16.7826 69.9346 16.4577 69.4233 15.8766L70.0168 15.033C70.4369 15.4954 70.9482 15.7735 71.5509 15.8672V14.0583C71.2648 13.9833 71.0274 13.9114 70.8386 13.8427C70.6499 13.7677 70.4521 13.6646 70.2451 13.5334C70.0381 13.3959 69.8798 13.221 69.7703 13.0085C69.6668 12.7898 69.615 12.5336 69.615 12.2399C69.615 11.7588 69.7916 11.3495 70.1447 11.0121C70.4977 10.6747 70.9665 10.481 71.5509 10.431V9.55932H72.2814V10.4404C73.018 10.5216 73.6298 10.8028 74.1168 11.2839L73.505 12.0993C73.1702 11.7619 72.7623 11.5432 72.2814 11.4433V13.0554C72.5066 13.1179 72.6984 13.1772 72.8567 13.2335C73.015 13.2897 73.1885 13.3709 73.3772 13.4771C73.572 13.5771 73.7272 13.6896 73.8429 13.8146C73.9585 13.9333 74.0559 14.0895 74.1351 14.2832C74.2142 14.4769 74.2538 14.6956 74.2538 14.9393C74.2538 15.4517 74.0864 15.886 73.7516 16.2421C73.4228 16.592 72.9328 16.7951 72.2814 16.8514V17.6949H71.5509ZM72.948 15.5673C73.0941 15.4111 73.1672 15.2361 73.1672 15.0424C73.1672 14.8487 73.0911 14.6925 72.9389 14.5738C72.7867 14.4488 72.5675 14.3426 72.2814 14.2551V15.8766C72.5797 15.8266 72.8019 15.7235 72.948 15.5673ZM70.7108 12.165C70.7108 12.4649 70.9908 12.6961 71.5509 12.8585V11.3964C71.2891 11.4214 71.0821 11.5057 70.93 11.6495C70.7839 11.7869 70.7108 11.9588 70.7108 12.165Z" fill="#FFEA7C"/>
</g>
<g style="mix-blend-mode:overlay" filter="url(#filter2_f_15_252)">
<circle cx="71.9657" cy="11.339" r="4.0678" fill="white"/>
</g>
<path d="M128.464 13.5898V14.7124H125.526V13.5898H128.464ZM134.679 16.3828V17.5H129.383V16.5439L131.924 13.7993C132.189 13.4985 132.398 13.2371 132.552 13.0151C132.706 12.7931 132.815 12.5926 132.88 12.4136C132.948 12.231 132.982 12.0573 132.982 11.8926C132.982 11.6527 132.939 11.4432 132.853 11.2642C132.767 11.0815 132.641 10.9401 132.477 10.8398C132.316 10.7396 132.117 10.6895 131.881 10.6895C131.619 10.6895 131.395 10.7503 131.209 10.8721C131.027 10.9902 130.887 11.1549 130.79 11.3662C130.697 11.5775 130.651 11.8192 130.651 12.0913H129.227C129.227 11.6294 129.335 11.2087 129.55 10.8291C129.764 10.446 130.072 10.1398 130.473 9.91064C130.874 9.68148 131.351 9.56689 131.902 9.56689C132.439 9.56689 132.894 9.65641 133.266 9.83545C133.639 10.0109 133.922 10.2616 134.115 10.5874C134.308 10.9132 134.405 11.3018 134.405 11.7529C134.405 12.0036 134.364 12.2507 134.281 12.4941C134.199 12.7376 134.083 12.9793 133.932 13.2192C133.786 13.4556 133.61 13.6955 133.406 13.939C133.202 14.1825 132.974 14.4313 132.724 14.6855L131.198 16.3828H134.679ZM136.854 13.9014L135.721 13.6274L136.156 9.67969H140.458V10.856H137.332L137.128 12.6821C137.239 12.6141 137.4 12.5461 137.612 12.478C137.827 12.4064 138.068 12.3706 138.337 12.3706C138.709 12.3706 139.042 12.4315 139.336 12.5532C139.629 12.6714 139.878 12.8433 140.082 13.0688C140.29 13.2944 140.446 13.5701 140.55 13.896C140.657 14.2183 140.711 14.5835 140.711 14.9917C140.711 15.3498 140.657 15.6864 140.55 16.0015C140.446 16.313 140.287 16.5905 140.072 16.834C139.857 17.0739 139.587 17.2637 139.261 17.4033C138.935 17.5394 138.552 17.6074 138.111 17.6074C137.778 17.6074 137.458 17.5591 137.15 17.4624C136.845 17.3621 136.572 17.2171 136.328 17.0273C136.085 16.834 135.889 16.5977 135.743 16.3184C135.599 16.0391 135.521 15.7186 135.506 15.3569H136.908C136.933 15.5968 136.998 15.8009 137.102 15.9692C137.205 16.1375 137.341 16.2664 137.51 16.356C137.682 16.4455 137.88 16.4902 138.106 16.4902C138.31 16.4902 138.485 16.4526 138.632 16.3774C138.783 16.2987 138.906 16.1895 139.003 16.0498C139.1 15.9102 139.171 15.7454 139.218 15.5557C139.264 15.3659 139.288 15.1582 139.288 14.9326C139.288 14.7142 139.261 14.5155 139.207 14.3364C139.153 14.1538 139.071 13.9963 138.96 13.8638C138.849 13.7313 138.709 13.6292 138.541 13.5576C138.376 13.486 138.183 13.4502 137.961 13.4502C137.664 13.4502 137.435 13.495 137.273 13.5845C137.116 13.674 136.976 13.7796 136.854 13.9014ZM146.689 12.9185V14.2344C146.689 14.8359 146.628 15.3498 146.507 15.7759C146.385 16.202 146.209 16.5511 145.98 16.8232C145.751 17.0918 145.477 17.2905 145.158 17.4194C144.84 17.5448 144.485 17.6074 144.095 17.6074C143.783 17.6074 143.493 17.568 143.225 17.4893C142.956 17.4069 142.715 17.2816 142.5 17.1133C142.288 16.9414 142.106 16.723 141.952 16.458C141.801 16.193 141.685 15.8761 141.603 15.5073C141.524 15.1385 141.485 14.7142 141.485 14.2344V12.9185C141.485 12.3169 141.545 11.8049 141.667 11.3823C141.792 10.9598 141.97 10.6143 142.199 10.3457C142.428 10.0771 142.702 9.882 143.021 9.76025C143.339 9.63493 143.694 9.57227 144.084 9.57227C144.399 9.57227 144.689 9.61165 144.954 9.69043C145.223 9.76921 145.463 9.89274 145.674 10.061C145.889 10.2257 146.071 10.4406 146.222 10.7056C146.372 10.967 146.487 11.2821 146.566 11.6509C146.648 12.0161 146.689 12.4386 146.689 12.9185ZM145.271 14.4277V12.7197C145.271 12.4189 145.253 12.1576 145.217 11.9355C145.185 11.71 145.137 11.5184 145.072 11.3608C145.008 11.2033 144.927 11.0762 144.831 10.9795C144.734 10.8792 144.623 10.8058 144.498 10.7593C144.372 10.7127 144.235 10.6895 144.084 10.6895C143.898 10.6895 143.731 10.7271 143.585 10.8022C143.438 10.8739 143.314 10.9884 143.214 11.146C143.114 11.3035 143.037 11.513 142.983 11.7744C142.933 12.0322 142.908 12.3473 142.908 12.7197V14.4277C142.908 14.7285 142.924 14.9917 142.956 15.2173C142.992 15.4429 143.042 15.6362 143.107 15.7974C143.175 15.9585 143.255 16.091 143.348 16.1948C143.445 16.2951 143.556 16.3703 143.681 16.4204C143.807 16.467 143.944 16.4902 144.095 16.4902C144.285 16.4902 144.451 16.4526 144.594 16.3774C144.741 16.3022 144.865 16.1841 144.965 16.0229C145.065 15.8582 145.14 15.6452 145.191 15.3838C145.244 15.1188 145.271 14.8001 145.271 14.4277ZM152.753 12.9185V14.2344C152.753 14.8359 152.692 15.3498 152.571 15.7759C152.449 16.202 152.273 16.5511 152.044 16.8232C151.815 17.0918 151.541 17.2905 151.223 17.4194C150.904 17.5448 150.549 17.6074 150.159 17.6074C149.848 17.6074 149.558 17.568 149.289 17.4893C149.02 17.4069 148.779 17.2816 148.564 17.1133C148.353 16.9414 148.17 16.723 148.016 16.458C147.866 16.193 147.749 15.8761 147.667 15.5073C147.588 15.1385 147.549 14.7142 147.549 14.2344V12.9185C147.549 12.3169 147.61 11.8049 147.731 11.3823C147.857 10.9598 148.034 10.6143 148.263 10.3457C148.492 10.0771 148.766 9.882 149.085 9.76025C149.404 9.63493 149.758 9.57227 150.148 9.57227C150.463 9.57227 150.753 9.61165 151.018 9.69043C151.287 9.76921 151.527 9.89274 151.738 10.061C151.953 10.2257 152.136 10.4406 152.286 10.7056C152.436 10.967 152.551 11.2821 152.63 11.6509C152.712 12.0161 152.753 12.4386 152.753 12.9185ZM151.335 14.4277V12.7197C151.335 12.4189 151.317 12.1576 151.282 11.9355C151.249 11.71 151.201 11.5184 151.137 11.3608C151.072 11.2033 150.992 11.0762 150.895 10.9795C150.798 10.8792 150.687 10.8058 150.562 10.7593C150.437 10.7127 150.299 10.6895 150.148 10.6895C149.962 10.6895 149.796 10.7271 149.649 10.8022C149.502 10.8739 149.378 10.9884 149.278 11.146C149.178 11.3035 149.101 11.513 149.047 11.7744C148.997 12.0322 148.972 12.3473 148.972 12.7197V14.4277C148.972 14.7285 148.988 14.9917 149.02 15.2173C149.056 15.4429 149.106 15.6362 149.171 15.7974C149.239 15.9585 149.319 16.091 149.412 16.1948C149.509 16.2951 149.62 16.3703 149.745 16.4204C149.871 16.467 150.009 16.4902 150.159 16.4902C150.349 16.4902 150.515 16.4526 150.659 16.3774C150.805 16.3022 150.929 16.1841 151.029 16.0229C151.129 15.8582 151.205 15.6452 151.255 15.3838C151.308 15.1188 151.335 14.8001 151.335 14.4277Z" fill="white"/>
<circle cx="164.5" cy="13.5" r="7.5" fill="#F9E160"/>
<g filter="url(#filter3_i_15_252)">
<circle cx="164.5" cy="13.5" r="6.22881" fill="#FE881C" fill-opacity="0.72"/>
</g>
<g filter="url(#filter4_d_15_252)">
<path d="M164.212 17.6949V16.8514C163.305 16.7826 162.596 16.4577 162.085 15.8766L162.678 15.033C163.098 15.4954 163.61 15.7735 164.212 15.8672V14.0583C163.926 13.9833 163.689 13.9114 163.5 13.8427C163.311 13.7677 163.114 13.6646 162.907 13.5334C162.7 13.3959 162.541 13.221 162.432 13.0085C162.328 12.7898 162.276 12.5336 162.276 12.2399C162.276 11.7588 162.453 11.3495 162.806 11.0121C163.159 10.6747 163.628 10.481 164.212 10.431V9.55932H164.943V10.4404C165.679 10.5216 166.291 10.8028 166.778 11.2839L166.166 12.0993C165.832 11.7619 165.424 11.5432 164.943 11.4433V13.0554C165.168 13.1179 165.36 13.1772 165.518 13.2335C165.676 13.2897 165.85 13.3709 166.039 13.4771C166.233 13.5771 166.389 13.6896 166.504 13.8146C166.62 13.9333 166.717 14.0895 166.797 14.2832C166.876 14.4769 166.915 14.6956 166.915 14.9393C166.915 15.4517 166.748 15.886 166.413 16.2421C166.084 16.592 165.594 16.7951 164.943 16.8514V17.6949H164.212ZM165.609 15.5673C165.756 15.4111 165.829 15.2361 165.829 15.0424C165.829 14.8487 165.752 14.6925 165.6 14.5738C165.448 14.4488 165.229 14.3426 164.943 14.2551V15.8766C165.241 15.8266 165.463 15.7235 165.609 15.5673ZM163.372 12.165C163.372 12.4649 163.652 12.6961 164.212 12.8585V11.3964C163.951 11.4214 163.744 11.5057 163.591 11.6495C163.445 11.7869 163.372 11.9588 163.372 12.165Z" fill="#FFEA7C"/>
</g>
<g style="mix-blend-mode:overlay" filter="url(#filter5_f_15_252)">
<circle cx="164.627" cy="11.339" r="4.0678" fill="white"/>
</g>
<defs>
<filter id="filter0_i_15_252" x="65.6097" y="7.27119" width="12.4576" height="12.7119" filterUnits="userSpaceOnUse" color-interpolation-filters="sRGB">
<feFlood flood-opacity="0" result="BackgroundImageFix"/>
<feBlend mode="normal" in="SourceGraphic" in2="BackgroundImageFix" result="shape"/>
<feColorMatrix in="SourceAlpha" type="matrix" values="0 0 0 0 0 0 0 0 0 0 0 0 0 0 0 0 0 0 127 0" result="hardAlpha"/>
<feMorphology radius="0.254237" operator="erode" in="SourceAlpha" result="effect1_innerShadow_15_252"/>
<feOffset dy="0.254237"/>
<feComposite in2="hardAlpha" operator="arithmetic" k2="-1" k3="1"/>
<feColorMatrix type="matrix" values="0 0 0 0 0 0 0 0 0 0 0 0 0 0 0 0 0 0 0.25 0"/>
<feBlend mode="normal" in2="shape" result="effect1_innerShadow_15_252"/>
</filter>
<filter id="filter1_d_15_252" x="69.4233" y="9.55932" width="4.83051" height="8.38983" filterUnits="userSpaceOnUse" color-interpolation-filters="sRGB">
<feFlood flood-opacity="0" result="BackgroundImageFix"/>
<feColorMatrix in="SourceAlpha" type="matrix" values="0 0 0 0 0 0 0 0 0 0 0 0 0 0 0 0 0 0 127 0" result="hardAlpha"/>
<feOffset dy="0.254237"/>
<feComposite in2="hardAlpha" operator="out"/>
<feColorMatrix type="matrix" values="0 0 0 0 0 0 0 0 0 0 0 0 0 0 0 0 0 0 0.25 0"/>
<feBlend mode="normal" in2="BackgroundImageFix" result="effect1_dropShadow_15_252"/>
<feBlend mode="normal" in="SourceGraphic" in2="effect1_dropShadow_15_252" result="shape"/>
</filter>
<filter id="filter2_f_15_252" x="61.7962" y="1.16948" width="20.339" height="20.339" filterUnits="userSpaceOnUse" color-interpolation-filters="sRGB">
<feFlood flood-opacity="0" result="BackgroundImageFix"/>
<feBlend mode="normal" in="SourceGraphic" in2="BackgroundImageFix" result="shape"/>
<feGaussianBlur stdDeviation="3.05085" result="effect1_foregroundBlur_15_252"/>
</filter>
<filter id="filter3_i_15_252" x="158.271" y="7.27119" width="12.4576" height="12.7119" filterUnits="userSpaceOnUse" color-interpolation-filters="sRGB">
<feFlood flood-opacity="0" result="BackgroundImageFix"/>
<feBlend mode="normal" in="SourceGraphic" in2="BackgroundImageFix" result="shape"/>
<feColorMatrix in="SourceAlpha" type="matrix" values="0 0 0 0 0 0 0 0 0 0 0 0 0 0 0 0 0 0 127 0" result="hardAlpha"/>
<feMorphology radius="0.254237" operator="erode" in="SourceAlpha" result="effect1_innerShadow_15_252"/>
<feOffset dy="0.254237"/>
<feComposite in2="hardAlpha" operator="arithmetic" k2="-1" k3="1"/>
<feColorMatrix type="matrix" values="0 0 0 0 0 0 0 0 0 0 0 0 0 0 0 0 0 0 0.25 0"/>
<feBlend mode="normal" in2="shape" result="effect1_innerShadow_15_252"/>
</filter>
<filter id="filter4_d_15_252" x="162.085" y="9.55932" width="4.83051" height="8.38983" filterUnits="userSpaceOnUse" color-interpolation-filters="sRGB">
<feFlood flood-opacity="0" result="BackgroundImageFix"/>
<feColorMatrix in="SourceAlpha" type="matrix" values="0 0 0 0 0 0 0 0 0 0 0 0 0 0 0 0 0 0 127 0" result="hardAlpha"/>
<feOffset dy="0.254237"/>
<feComposite in2="hardAlpha" operator="out"/>
<feColorMatrix type="matrix" values="0 0 0 0 0 0 0 0 0 0 0 0 0 0 0 0 0 0 0.25 0"/>
<feBlend mode="normal" in2="BackgroundImageFix" result="effect1_dropShadow_15_252"/>
<feBlend mode="normal" in="SourceGraphic" in2="effect1_dropShadow_15_252" result="shape"/>
</filter>
<filter id="filter5_f_15_252" x="154.458" y="1.16948" width="20.339" height="20.339" filterUnits="userSpaceOnUse" color-interpolation-filters="sRGB">
<feFlood flood-opacity="0" result="BackgroundImageFix"/>
<feBlend mode="normal" in="SourceGraphic" in2="BackgroundImageFix" result="shape"/>
<feGaussianBlur stdDeviation="3.05085" result="effect1_foregroundBlur_15_252"/>
</filter>
</defs>
</svg>
